<svg width="1440" height="515" viewBox="0 0 1440 515" fill="none" xmlns="http://www.w3.org/2000/svg">
<g clip-path="url(#clip0_153_66)">
<rect width="1440" height="515" fill="white"/>
<path fill-rule="evenodd" clip-rule="evenodd" d="M108.328 88.7959C112.533 88.7959 116.448 90.1497 119.726 92.4777C120.949 93.3457 122.082 94.3482 123.11 95.4673C124.477 96.9576 125.656 98.654 126.604 100.51L191.71 82.6797L157.434 13.8273C155.996 14.7799 154.308 15.3287 152.503 15.3287C149.879 15.3287 147.503 14.1699 145.783 12.2961C145.691 12.196 145.601 12.0931 145.511 11.988C144.105 10.3233 143.192 8.15448 143.027 5.75854L35.9477 22.3427C36.0111 23.007 36.0441 23.6821 36.0441 24.3648C36.0441 29.6659 34.0726 34.4654 30.8841 37.9388C30.7877 38.045 30.6893 38.1489 30.5902 38.2519L93.5599 95.454C97.3418 91.3401 102.563 88.7959 108.328 88.7959ZM581.313 452.161L650.16 476.407C650.73 474.7 651.519 473.106 652.49 471.669L598.799 425.34L579.913 445.792C580.89 447.08 581.478 448.732 581.478 450.531C581.478 451.091 581.421 451.637 581.313 452.161ZM649.775 477.707L580.928 453.462C580.583 454.339 580.088 455.129 579.477 455.794C578.241 457.142 576.533 457.975 574.647 457.975C572.763 457.975 571.055 457.141 569.818 455.793C569.624 455.581 569.439 455.356 569.267 455.119L506.569 420.927L466.626 484.251C468.852 487.465 470.173 491.466 470.173 495.803C470.173 501.104 468.201 505.904 465.014 509.378C461.825 512.852 457.421 515 452.557 515C447.692 515 443.288 512.852 440.1 509.378C436.913 505.904 434.94 501.104 434.94 495.803C434.94 490.503 436.913 485.703 440.1 482.23C442.202 479.939 444.834 478.224 447.778 477.322L437.304 430.49L320.526 496.411L320.279 496.551L320.018 496.443L194.611 444.696C193.551 447.487 191.998 449.997 190.07 452.099C186.287 456.221 181.061 458.771 175.289 458.771C169.516 458.771 164.29 456.221 160.507 452.1C158.073 449.446 156.237 446.142 155.236 442.446L55.6182 470.994C55.6875 471.433 55.7239 471.884 55.7239 472.344C55.7239 474.536 54.9085 476.521 53.5895 477.958C52.2715 479.394 50.4509 480.283 48.4391 480.283C46.4276 480.283 44.6056 479.394 43.2876 477.958C42.0221 476.579 41.2207 474.694 41.1579 472.605L-33.7857 378.806L-34 378.537L-33.9174 378.187L9.92273 191.744C8.06347 191.297 6.40269 190.276 5.10451 188.861C3.32847 186.926 2.22877 184.25 2.22877 181.295C2.22877 178.341 3.32847 175.665 5.10451 173.729C6.78279 171.901 9.06608 170.731 11.5984 170.607L13.7185 42.8668C10.7463 41.9704 8.08955 40.2484 5.97138 37.9388C2.7839 34.4654 0.811363 29.6659 0.811363 24.3648C0.811363 19.0644 2.7839 14.2649 5.97138 10.7915C9.15887 7.31708 13.5633 5.1687 18.4281 5.1687C23.2922 5.1687 27.6966 7.31708 30.8841 10.7915C33.3788 13.5089 35.1284 17.0405 35.7717 20.9882L143.016 4.37808C143.153 1.75647 144.184 -0.604919 145.783 -2.34698C147.503 -4.22119 149.879 -5.37994 152.503 -5.37994C155.126 -5.37994 157.502 -4.22119 159.222 -2.34698C160.941 -0.474304 162.004 2.1156 162.004 4.97507C162.004 7.83417 160.941 10.423 159.222 12.2961C158.983 12.5562 158.731 12.8031 158.469 13.0345L192.968 82.335L260.779 63.7632C260.573 62.6811 260.466 61.5597 260.466 60.411C260.466 51.3069 267.239 43.9258 275.593 43.9258C279.771 43.9258 283.554 45.7719 286.291 48.7548C287.262 49.8124 288.102 51.0133 288.781 52.3261L380.506 1.43445C380.013 0.181763 379.74 -1.19653 379.74 -2.64496C379.74 -5.50439 380.804 -8.09326 382.522 -9.9671C384.242 -11.8412 386.618 -13 389.243 -13C391.866 -13 394.241 -11.8412 395.961 -9.9671C397.68 -8.09326 398.743 -5.50439 398.743 -2.64496C398.743 -1.74927 398.639 -0.880249 398.443 -0.0521851C398.013 1.76581 397.142 3.38989 395.961 4.67606C395.077 5.64011 394.018 6.41525 392.843 6.93958L411.206 66.8102C412.184 66.5176 413.214 66.3613 414.277 66.3613C417.473 66.3613 420.367 67.7731 422.462 70.0561C423.412 71.0903 424.197 72.3045 424.772 73.6468L503.557 39.1721C502.997 37.4512 502.692 35.5979 502.692 33.6679C502.692 32.2173 502.864 30.8117 503.187 29.4713C503.878 26.6046 505.257 24.0434 507.123 22.0102C509.86 19.0277 513.643 17.1813 517.821 17.1813C526.176 17.1813 532.949 24.5624 532.949 33.6679C532.949 34.3819 532.907 35.0858 532.825 35.7764L683.159 70.9741C683.517 68.8818 684.453 67.012 685.779 65.5668C687.499 63.6937 689.875 62.5339 692.498 62.5339C695.122 62.5339 697.498 63.6937 699.217 65.5668C700.937 67.4406 702 70.0294 702 72.8889C702 75.748 700.937 78.3372 699.217 80.211C697.831 81.7206 696.02 82.7664 693.995 83.1151L675.983 169.755C679.038 170.633 681.769 172.381 683.937 174.744C687.124 178.217 689.096 183.017 689.096 188.318C689.096 193.619 687.124 198.419 683.937 201.892C680.749 205.366 676.345 207.515 671.48 207.515C668.01 207.515 664.773 206.42 662.046 204.532L628.625 257.683C628.963 257.97 629.285 258.279 629.588 258.609C631.462 260.652 632.622 263.475 632.622 266.591C632.622 269.709 631.463 272.531 629.588 274.574C628.834 275.395 627.964 276.091 627.006 276.63L657.126 351.152C657.863 350.878 658.654 350.73 659.477 350.73C661.489 350.73 663.309 351.619 664.628 353.055C665.946 354.491 666.762 356.476 666.762 358.667C666.762 360.86 665.946 362.845 664.628 364.281C663.548 365.457 662.131 366.266 660.548 366.52L666.045 463.958C666.191 463.954 666.337 463.952 666.484 463.952C671.278 463.952 675.619 466.07 678.761 469.494C681.903 472.917 683.847 477.649 683.847 482.874C683.847 488.097 681.903 492.829 678.761 496.252C675.619 499.675 671.278 501.794 666.484 501.794C661.689 501.794 657.347 499.675 654.205 496.252C651.063 492.829 649.12 488.097 649.12 482.874C649.12 481.082 649.348 479.349 649.775 477.707ZM527.326 388.018L507.285 419.792L568.205 453.014C567.954 452.238 567.816 451.402 567.816 450.531C567.816 448.476 568.581 446.615 569.817 445.268C571.053 443.921 572.763 443.087 574.647 443.087C576.315 443.087 577.844 443.739 579.03 444.822L597.808 424.486L551.844 384.825C551.44 385.375 551.007 385.901 550.55 386.398C547.363 389.872 542.959 392.021 538.093 392.021C534.038 392.021 530.303 390.528 527.326 388.018ZM465.802 483.147L505.437 420.31L479.955 406.414L438.449 429.844L448.996 477C450.146 476.743 451.337 476.607 452.557 476.607C457.421 476.607 461.825 478.755 465.014 482.23C465.285 482.526 465.548 482.832 465.802 483.147ZM506.153 419.175L526.358 387.142C526.111 386.901 525.871 386.654 525.637 386.398C524.511 385.171 523.537 383.779 522.748 382.257L481.33 405.637L506.153 419.175ZM428.259 384.282L438.143 428.477L478.568 405.656L432.544 380.559C432.214 381.154 431.818 381.703 431.369 382.193C430.507 383.133 429.445 383.856 428.259 384.282ZM436.998 429.123L427.041 384.604C426.633 384.675 426.214 384.712 425.787 384.712C423.606 384.712 421.632 383.749 420.204 382.193C419.529 381.457 418.976 380.589 418.58 379.628L352.829 405.101L300.784 425.267C300.822 425.426 300.857 425.586 300.885 425.749C300.973 426.242 301.019 426.751 301.019 427.272C301.019 429.464 300.204 431.449 298.886 432.886C298.371 433.446 297.78 433.923 297.131 434.296L320.552 494.856L436.998 429.123ZM552.592 383.731L598.702 423.518L653.887 363.758C653.113 362.75 652.565 361.53 652.326 360.19L555.666 371.462C555.695 371.912 555.71 372.366 555.71 372.824C555.71 376.875 554.558 380.633 552.592 383.731ZM599.693 424.372L653.268 470.6C653.566 470.217 653.88 469.848 654.205 469.494C656.973 466.478 660.673 464.475 664.792 464.041L659.295 366.604C657.572 366.558 655.997 365.859 654.771 364.727L599.693 424.372ZM433.106 379.339L479.943 404.88L520.263 382.12L522.169 381.044C521.636 379.817 521.217 378.519 520.93 377.166C520.841 376.748 520.764 376.323 520.701 375.895C520.593 375.159 520.523 374.41 520.494 373.65L433.673 376.531C433.629 377.519 433.431 378.465 433.106 379.339ZM319.094 494.601L295.977 434.827C295.27 435.076 294.517 435.21 293.735 435.21C291.723 435.21 289.901 434.322 288.583 432.886C287.265 431.449 286.449 429.464 286.449 427.272C286.449 425.559 286.947 423.973 287.794 422.676L282.092 417.41L240.975 379.433C239.659 380.856 237.846 381.737 235.844 381.737C233.997 381.737 232.31 380.987 231.026 379.752L191.165 421.175C193.621 424.298 195.316 428.153 195.933 432.4C196.103 433.57 196.192 434.77 196.192 435.993C196.192 438.593 195.791 441.09 195.056 443.418L196.055 443.83L319.094 494.601ZM241.787 378.391L283.725 417.125L288.606 421.634C289.629 420.529 290.95 419.753 292.427 419.462L292.097 415.668L283.301 314.403C281.565 314.394 279.993 313.624 278.854 312.382C277.709 311.135 277 309.41 277 307.506C277 305.6 277.709 303.875 278.854 302.627C279.927 301.457 281.385 300.706 283.003 300.616L285.243 248.982C283.851 249.301 282.408 249.468 280.929 249.468C278.833 249.468 276.81 249.132 274.902 248.507L238.738 366.511C239.587 366.912 240.351 367.483 240.995 368.185C242.313 369.622 243.129 371.606 243.129 373.799C243.129 375.51 242.632 377.094 241.787 378.391ZM300.364 423.977L346.028 406.286L418.159 378.339C417.985 377.628 417.892 376.881 417.892 376.11C417.892 373.884 418.668 371.855 419.941 370.328L365.468 307.149C363.826 308.621 361.725 309.506 359.433 309.506C357.822 309.506 356.305 309.069 354.976 308.299C354.139 307.814 353.377 307.197 352.714 306.473C351.345 304.982 350.393 303.037 350.06 300.867L289.662 307.496V307.506C289.662 309.41 288.954 311.135 287.808 312.382C286.935 313.333 285.807 314.009 284.548 314.276L293.337 415.453L293.674 419.334H293.735C295.029 419.334 296.245 419.702 297.299 420.348C297.882 420.705 298.416 421.147 298.886 421.659C299.497 422.325 300 423.109 300.364 423.977ZM433.634 375.166L520.484 372.284C520.613 367.198 522.558 362.606 525.637 359.25C527.454 357.271 529.665 355.723 532.131 354.756L506.955 269.002L431.254 369.904L431.369 370.026C432.606 371.374 433.434 373.168 433.634 375.166ZM555.533 370.103L652.194 358.83L652.192 358.667C652.192 356.476 653.007 354.491 654.325 353.055C654.812 352.524 655.367 352.069 655.977 351.704L625.857 277.181C624.738 277.633 623.526 277.88 622.263 277.88C619.681 277.88 617.319 276.85 615.505 275.147C615.309 274.964 615.12 274.772 614.938 274.574C613.903 273.447 613.087 272.082 612.562 270.561L549.459 358.156C549.55 358.24 549.641 358.326 549.731 358.412C550.012 358.682 550.286 358.961 550.55 359.25C553.182 362.119 554.985 365.891 555.533 370.103ZM506.5 267.448L505.941 265.546C505.051 264.153 504.528 262.46 504.528 260.634C504.528 258.258 505.412 256.106 506.84 254.55C508.021 253.265 509.573 252.384 511.307 252.117L508.036 195.119H507.94C504.744 195.119 501.85 193.707 499.755 191.424C497.661 189.141 496.364 185.987 496.364 182.505C496.364 181.613 496.449 180.743 496.611 179.904L462.904 196.585L391.775 231.785C391.669 235.745 390.152 239.321 387.754 241.935C385.376 244.526 382.13 246.173 378.531 246.313L378.469 246.315L363.379 289.729C364.417 290.247 365.355 290.962 366.151 291.83C367.871 293.704 368.934 296.293 368.934 299.152C368.934 301.882 367.965 304.365 366.382 306.214L420.854 369.392C421.461 368.862 422.141 368.429 422.874 368.111C423.776 367.721 424.758 367.507 425.787 367.507C426.383 367.507 426.963 367.579 427.522 367.716C428.528 367.962 429.461 368.416 430.282 369.036L506.5 267.448ZM507.902 267.742L533.325 354.34C534.841 353.876 536.441 353.628 538.093 353.628C541.974 353.628 545.561 354.995 548.471 357.311L612.13 268.946C611.989 268.225 611.912 267.478 611.904 266.713L520.253 261.743C520.025 263.675 519.208 265.407 518.006 266.717C516.578 268.273 514.604 269.237 512.423 269.237C510.753 269.237 509.204 268.671 507.928 267.707L507.902 267.742ZM520.315 260.378L611.965 265.348C612.229 262.728 613.316 260.377 614.938 258.61C615.894 257.566 617.038 256.727 618.308 256.155C618.758 255.952 619.223 255.783 619.702 255.651L607.596 186.73L519.473 183.597C519.234 186.645 518 189.383 516.126 191.424C514.33 193.381 511.946 194.698 509.288 195.034L512.558 252.032C514.685 252.071 516.607 253.026 518.006 254.55C519.313 255.975 520.164 257.897 520.299 260.034C520.306 260.148 520.312 260.263 520.315 260.378ZM517.639 175.615L591.816 128.952C591.456 128.085 591.255 127.123 591.255 126.11C591.255 124.346 591.864 122.736 592.865 121.516L570.941 95.4947L514.56 104.719L509.534 170.009C512.093 170.392 514.385 171.688 516.126 173.585C516.692 174.201 517.199 174.883 517.639 175.615ZM602.979 122.496L684.918 79.134C684.47 78.488 684.088 77.7831 683.787 77.0313L572.439 95.25L593.787 120.59C594.846 119.724 596.161 119.211 597.587 119.211C599.334 119.211 600.917 119.983 602.063 121.232C602.411 121.611 602.719 122.037 602.979 122.496ZM607.354 185.356L598.154 132.981C597.966 132.999 597.778 133.008 597.587 133.008C596.638 133.008 595.74 132.781 594.933 132.375C594.25 132.031 593.634 131.56 593.109 130.988C592.867 130.723 592.644 130.438 592.443 130.134L518.266 176.796C519.031 178.435 519.476 180.279 519.513 182.232L607.354 185.356ZM599.387 132.726L608.64 185.402L653.904 187.01C654.132 183.338 655.305 179.949 657.164 177.13L602.187 130.847C602.146 130.893 602.105 130.94 602.063 130.985C601.327 131.787 600.411 132.394 599.387 132.726ZM608.882 186.776L620.935 255.396C621.37 255.335 621.812 255.303 622.263 255.303C624.212 255.303 626.034 255.889 627.591 256.909L661.011 203.758C660.306 203.19 659.642 202.567 659.024 201.892C655.847 198.431 653.878 193.654 653.864 188.375L608.882 186.776ZM602.954 129.765L657.931 176.049C658.277 175.596 658.641 175.16 659.024 174.744C662.211 171.27 666.616 169.121 671.48 169.121C672.6 169.121 673.697 169.236 674.759 169.454L692.684 83.2419L692.498 83.2436C689.875 83.2436 687.499 82.0837 685.779 80.211L685.772 80.2017L603.528 123.725C603.78 124.469 603.916 125.272 603.916 126.11C603.916 126.497 603.888 126.878 603.831 127.247C603.692 128.16 603.388 129.012 602.954 129.765ZM486.779 107.881L513.391 103.526L517.501 50.1481C513.45 50.0563 509.791 48.2305 507.123 45.3242C505.837 43.9236 504.782 42.2711 504.024 40.4402L425.24 74.9145C425.637 76.1888 425.853 77.5545 425.853 78.9756C425.853 80.7137 425.53 82.3695 424.947 83.8763L474.327 110.077C474.316 109.912 474.31 109.745 474.31 109.577C474.31 107.673 475.019 105.95 476.165 104.701C477.31 103.453 478.892 102.678 480.641 102.678C482.39 102.678 483.972 103.451 485.118 104.698C485.912 105.563 486.495 106.656 486.779 107.881ZM514.668 103.317L569.916 94.278L528.597 45.2346C526.06 48.0419 522.606 49.8618 518.765 50.1198L514.668 103.317ZM571.413 94.033L683.355 75.7174C683.121 74.8178 682.996 73.8692 682.996 72.8889C682.996 72.7043 683.001 72.5207 683.009 72.3379L532.614 37.1259C532.093 39.7831 530.985 42.2038 529.443 44.2172L571.413 94.033ZM513.284 104.929L486.965 109.234C486.969 109.349 486.972 109.462 486.972 109.577C486.972 111.482 486.263 113.207 485.118 114.455C484.674 114.939 484.161 115.352 483.602 115.675L504.155 170.58C505.341 170.133 506.615 169.89 507.94 169.89C508.054 169.89 508.168 169.893 508.281 169.895L513.284 104.929ZM214.757 113.475L402.766 80.3139C402.737 80.0131 402.717 79.709 402.708 79.4021L290.23 64.5966C289.54 67.4684 288.16 70.0337 286.291 72.0688C283.554 75.0513 279.771 76.8967 275.593 76.8967C268.731 76.8967 262.935 71.9159 261.085 65.0904L193.586 83.5761L206.185 108.884C206.94 108.539 207.768 108.347 208.637 108.347C210.383 108.347 211.965 109.12 213.112 110.369C213.889 111.215 214.467 112.281 214.757 113.475ZM474.635 111.764L424.396 85.1063C423.871 86.1326 423.219 87.0711 422.462 87.8952C420.605 89.919 418.119 91.2584 415.351 91.5359L416.195 115.311L417.271 145.609L418.039 167.205C418.902 167.555 419.678 168.101 420.316 168.798C420.754 169.275 421.127 169.823 421.423 170.423L474.221 115.329L475.657 113.832C475.44 113.531 475.247 113.209 475.077 112.871C474.902 112.519 474.753 112.149 474.635 111.764ZM402.964 81.6627L214.956 114.823C214.963 114.963 214.968 115.104 214.968 115.246C214.967 117.15 214.258 118.876 213.113 120.124C212.241 121.073 211.115 121.747 209.859 122.016L272.424 205.877C275.022 204.614 277.9 203.912 280.929 203.912C286.701 203.912 291.928 206.461 295.71 210.584C296.474 211.416 297.178 212.312 297.817 213.264C298.033 213.587 298.241 213.914 298.442 214.249L410.294 177.006C409.793 176.019 409.508 174.884 409.508 173.676C409.508 171.774 410.217 170.048 411.364 168.799C412.51 167.55 414.091 166.777 415.839 166.777C416.156 166.777 416.468 166.802 416.772 166.852L416.042 146.306L414.941 115.311L414.099 91.588C410.973 91.5358 408.147 90.1353 406.092 87.8952C404.551 86.2171 403.444 84.068 402.964 81.6627ZM502.992 171.097L482.44 116.193C481.87 116.377 481.266 116.476 480.641 116.476C480.248 116.476 479.863 116.437 479.49 116.362C478.638 116.19 477.846 115.833 477.149 115.33C476.932 115.173 476.724 115.002 476.526 114.817L476.035 115.33L421.929 171.786C422.086 172.386 422.171 173.021 422.171 173.676C422.171 175.581 421.462 177.305 420.316 178.554C419.171 179.801 417.587 180.575 415.839 180.575C415.709 180.575 415.58 180.57 415.452 180.561L390.492 225C391.191 226.628 391.629 228.414 391.748 230.295L463.25 194.911L497.064 178.178C497.648 176.434 498.574 174.872 499.755 173.585C500.689 172.566 501.783 171.721 502.992 171.097ZM289.538 306.137L349.936 299.508C349.932 299.39 349.93 299.271 349.93 299.152C349.93 296.62 350.765 294.3 352.15 292.501L299.367 237.431C298.393 239.413 297.157 241.22 295.71 242.797C293.195 245.538 290.041 247.583 286.513 248.646L284.255 300.679C285.633 300.899 286.868 301.602 287.808 302.627C288.672 303.568 289.287 304.781 289.538 306.137ZM362.206 289.245L377.136 246.29C373.697 246.049 370.603 244.43 368.313 241.935C365.825 239.223 364.286 235.478 364.286 231.342C364.286 227.204 365.825 223.46 368.313 220.749C370.8 218.038 374.238 216.361 378.034 216.361C381.83 216.361 385.267 218.038 387.754 220.749C388.538 221.603 389.229 222.561 389.806 223.603L414.119 180.317C413.062 179.992 412.117 179.376 411.362 178.554C411.253 178.435 411.148 178.311 411.047 178.184L299.115 215.452C300.845 218.768 301.833 222.603 301.833 226.691C301.833 230.065 301.159 233.267 299.951 236.148L353.017 291.514C354.707 289.826 356.96 288.797 359.433 288.797C360.397 288.797 361.329 288.954 362.206 289.245ZM271.264 206.488L208.334 122.137C207.388 122.088 206.495 121.812 205.702 121.358L151.848 210.704C152.554 211.255 153.216 211.867 153.828 212.534C156.55 215.5 158.283 219.545 158.441 224.029L260.051 225.587C260.307 219.736 262.588 214.463 266.148 210.584C267.646 208.951 269.37 207.566 271.264 206.488ZM260.027 226.952L158.44 225.394C158.278 229.871 156.546 233.909 153.828 236.871C153.278 237.47 152.689 238.025 152.063 238.53L232.277 366.876C233.331 366.23 234.548 365.86 235.844 365.86C236.432 365.86 237.003 365.936 237.55 366.08L273.713 248.074C270.844 246.924 268.268 245.108 266.148 242.797C262.418 238.733 260.091 233.138 260.027 226.952ZM290.498 63.2533L402.734 78.027C402.946 74.9217 404.189 72.1299 406.092 70.0561C407.2 68.8473 408.533 67.8832 410.017 67.2426L391.654 7.37216C390.884 7.59241 390.076 7.70862 389.243 7.70862C386.618 7.70862 384.242 6.54984 382.522 4.67606C381.968 4.0722 381.48 3.39276 381.076 2.65436L289.352 53.546C290.231 55.6361 290.723 57.9611 290.723 60.411C290.723 61.3801 290.646 62.3299 290.498 63.2533ZM190.321 420.164L230.16 378.763C229.159 377.403 228.56 375.677 228.56 373.799C228.56 371.606 229.375 369.622 230.693 368.185C230.867 367.996 231.05 367.815 231.24 367.646L151.026 239.301C148.601 240.954 145.733 241.911 142.662 241.911C140.813 241.911 139.038 241.564 137.39 240.928L109.73 316.407C110.971 317.033 112.092 317.893 113.047 318.933C115.141 321.216 116.437 324.37 116.437 327.853C116.437 331.337 115.141 334.49 113.047 336.772C112.736 337.111 112.407 337.432 112.062 337.73L163.707 417.028C167.022 414.619 171.005 413.214 175.289 413.214C181.061 413.214 186.287 415.765 190.07 419.886C190.154 419.977 190.237 420.07 190.321 420.164ZM162.685 417.82L111.041 338.521C109.253 339.754 107.133 340.467 104.862 340.467C104.243 340.467 103.635 340.414 103.044 340.312L90.1881 405.436C91.3413 405.821 92.374 406.508 93.2052 407.415C94.5232 408.852 95.3386 410.836 95.3386 413.028C95.3386 413.434 95.3105 413.832 95.256 414.221L155.122 429.98C156.092 426.107 157.976 422.644 160.507 419.886C161.189 419.144 161.916 418.453 162.685 417.82ZM54.565 468.048L83.579 419.293C83.3412 419.091 83.1157 418.873 82.903 418.641C81.585 417.205 80.7687 415.22 80.7687 413.028C80.7687 410.837 81.5841 408.852 82.903 407.415C84.2214 405.979 86.042 405.09 88.0538 405.09C88.3606 405.09 88.6631 405.111 88.96 405.151L101.817 340.025C99.8431 339.441 98.0806 338.302 96.6754 336.772C95.2778 335.249 94.2349 333.337 93.6966 331.198L33.7001 345.411L48.4391 464.407C47.7584 464.407 47.1006 464.508 46.4761 464.699L13.4629 368.835C15.6039 367.863 17.5315 366.443 19.146 364.683C22.3345 361.21 24.306 356.41 24.306 351.109C24.306 349.946 24.2116 348.808 24.029 347.702L33.7001 345.411L48.4391 464.407C50.4509 464.407 52.2715 465.296 53.5895 466.732C53.9567 467.131 54.2833 467.571 54.565 468.048ZM55.2998 469.672L154.918 441.124C154.569 439.474 154.385 437.756 154.385 435.993C154.385 434.387 154.538 432.82 154.828 431.308L94.9631 415.549C94.6018 416.727 93.9935 417.782 93.2052 418.641C91.8872 420.077 90.0653 420.966 88.0538 420.966C86.8161 420.966 85.6506 420.63 84.6302 420.036L55.2242 469.45C55.2503 469.524 55.2757 469.597 55.2998 469.672ZM40.4155 269.624L28.4757 303.227L33.5313 344.05L23.7641 346.364C22.9712 342.969 21.3497 339.935 19.146 337.534C18.4806 336.809 17.7607 336.141 16.9948 335.538L28.4757 303.227L33.5313 344.05L93.4308 329.861C93.3353 329.207 93.2848 328.536 93.2848 327.853C93.2848 324.385 94.5691 321.245 96.6473 318.965L53.5343 266.979C51.1586 269.115 48.1125 270.399 44.7912 270.399C43.5459 270.399 42.3395 270.218 41.1916 269.88C40.9297 269.803 40.6711 269.717 40.4155 269.624ZM15.9278 334.761L28.1282 300.423L39.2465 269.13C37.6785 268.377 36.2651 267.313 35.0696 266.012C32.5822 263.3 31.0433 259.554 31.0433 255.418C31.0433 251.281 32.5822 247.536 35.0696 244.825C36.0111 243.799 37.0877 242.923 38.2683 242.228L15.734 191.215C14.8037 191.626 13.8017 191.886 12.7562 191.968C12.6168 191.978 12.4771 191.986 12.3368 191.991L7.92113 331.96C10.1744 332.129 12.3127 332.761 14.2542 333.768C14.8298 334.066 15.3885 334.398 15.9278 334.761ZM54.463 266.063L97.576 318.05C99.565 316.292 102.1 315.239 104.862 315.239C106.157 315.239 107.404 315.471 108.568 315.9L136.227 240.422C134.452 239.558 132.852 238.348 131.495 236.871C129.644 234.854 128.251 232.34 127.499 229.527C127.09 227.996 126.87 226.377 126.87 224.702C126.87 223.195 127.048 221.732 127.383 220.338L69.4867 201.098L51.3138 242.228C51.7276 242.472 52.1292 242.738 52.5159 243.025C53.2329 243.557 53.9013 244.159 54.5119 244.825C56.136 246.595 57.3556 248.807 58.0071 251.281C58.3526 252.595 58.5388 253.983 58.5388 255.418C58.5388 259.554 56.9989 263.3 54.5119 266.012L54.463 266.063ZM45.3031 465.178L12.2899 369.314C10.531 369.957 8.64766 370.306 6.69032 370.306C1.82521 370.306 -2.57921 368.156 -5.7667 364.683C-8.95418 361.21 -10.9267 356.41 -10.9267 351.109C-10.9267 345.809 -8.95517 341.009 -5.7667 337.536C-2.58383 334.066 1.812 331.919 6.66853 331.913L11.0723 192.35L10.9148 193.017L-32.6229 378.174L41.0549 470.391L41.3098 470.709C41.366 470.413 41.438 470.123 41.5242 469.842C41.8845 468.657 42.4957 467.595 43.2876 466.732C43.8699 466.097 44.5505 465.569 45.3031 465.178ZM21.6053 183.758L68.8232 199.45L98.7103 131.804C96.7969 130.721 95.0579 129.327 93.5477 127.68C92.4262 126.458 91.4312 125.098 90.5867 123.625L14.0639 170.822C15.9661 171.254 17.6672 172.287 18.9908 173.729C20.7675 175.665 21.8665 178.341 21.8665 181.295C21.8665 182.143 21.7767 182.968 21.6053 183.758ZM70.0372 199.853L127.748 219.033C128.539 216.561 129.833 214.346 131.495 212.534C133.079 210.808 134.999 209.446 137.138 208.576L114.454 133.358C112.517 134.004 110.46 134.353 108.328 134.353C105.306 134.353 102.434 133.654 99.8414 132.396L70.0372 199.853ZM68.2737 200.694L21.2404 185.063C20.7431 186.502 19.97 187.795 18.9908 188.861C18.3607 189.547 17.6457 190.142 16.8641 190.621L39.398 241.635C41.0542 240.865 42.8768 240.438 44.7912 240.438C46.7053 240.438 48.5279 240.865 50.1851 241.635L68.2737 200.694ZM192.328 83.9212L127.197 101.758C128.501 104.731 129.232 108.059 129.232 111.574C129.232 117.864 126.892 123.559 123.11 127.681C121.013 129.966 118.473 131.767 115.643 132.919L138.331 208.15C139.707 207.722 141.16 207.493 142.662 207.493C145.64 207.493 148.426 208.392 150.803 209.954L204.655 120.608C204.483 120.456 204.319 120.295 204.162 120.124C203.016 118.876 202.306 117.15 202.306 115.246C202.306 113.341 203.014 111.616 204.16 110.368C204.442 110.06 204.751 109.783 205.08 109.539L192.328 83.9212ZM89.955 122.444C88.3421 119.214 87.4257 115.511 87.4257 111.574C87.4257 105.769 89.4187 100.472 92.6996 96.4498L29.6437 39.1681C26.5966 41.912 22.6895 43.5616 18.4281 43.5616C17.2432 43.5616 16.085 43.4339 14.9655 43.1903L12.8612 169.994L89.955 122.444Z" fill="#023E8A"/>
<path fill-rule="evenodd" clip-rule="evenodd" d="M869.328 99.2896C873.533 99.2896 877.448 100.61 880.726 102.881C881.949 103.727 883.082 104.705 884.11 105.797C885.477 107.25 886.656 108.905 887.604 110.715L952.71 93.3239L918.434 26.1668C916.996 27.0959 915.308 27.6312 913.503 27.6312C910.879 27.6312 908.503 26.5009 906.783 24.6732C906.691 24.5757 906.601 24.4753 906.511 24.3728C905.105 22.7491 904.192 20.6337 904.027 18.2967L796.948 34.4725C797.011 35.1205 797.044 35.7789 797.044 36.4448C797.044 41.6154 795.073 46.2967 791.884 49.6846C791.788 49.7881 791.689 49.8896 791.59 49.99L854.56 105.784C858.342 101.771 863.563 99.2896 869.328 99.2896ZM1342.31 453.708L1411.16 477.358C1411.73 475.692 1412.52 474.138 1413.49 472.736L1359.8 427.548L1340.91 447.496C1341.89 448.752 1342.48 450.364 1342.48 452.118C1342.48 452.665 1342.42 453.197 1342.31 453.708ZM1410.78 478.625L1341.93 454.977C1341.58 455.832 1341.09 456.604 1340.48 457.252C1339.24 458.567 1337.53 459.379 1335.65 459.379C1333.76 459.379 1332.06 458.566 1330.82 457.251C1330.62 457.044 1330.44 456.824 1330.27 456.594L1267.57 423.243L1227.63 485.008C1229.85 488.143 1231.17 492.045 1231.17 496.276C1231.17 501.446 1229.2 506.128 1226.01 509.517C1222.83 512.905 1218.42 515 1213.56 515C1208.69 515 1204.29 512.905 1201.1 509.517C1197.91 506.128 1195.94 501.446 1195.94 496.276C1195.94 491.106 1197.91 486.425 1201.1 483.037C1203.2 480.802 1205.83 479.129 1208.78 478.25L1198.3 432.571L1081.53 496.869L1081.28 497.005L1081.02 496.9L955.611 446.427C954.551 449.149 952.998 451.598 951.07 453.647C947.287 457.668 942.061 460.156 936.289 460.156C930.516 460.156 925.29 457.668 921.507 453.648C919.074 451.06 917.237 447.837 916.236 444.232L816.618 472.077C816.688 472.506 816.724 472.946 816.724 473.394C816.724 475.533 815.908 477.469 814.59 478.87C813.272 480.271 811.451 481.137 809.439 481.137C807.428 481.137 805.606 480.271 804.288 478.87C803.022 477.525 802.221 475.687 802.158 473.649L727.214 382.159L727 381.897L727.083 381.555L770.923 199.703C769.063 199.267 767.403 198.271 766.105 196.891C764.328 195.003 763.229 192.393 763.229 189.511C763.229 186.63 764.328 184.02 766.105 182.132C767.783 180.348 770.066 179.207 772.598 179.086L774.719 54.4913C771.746 53.6169 769.09 51.9373 766.971 49.6846C763.784 46.2967 761.811 41.6154 761.811 36.4448C761.811 31.2749 763.784 26.5937 766.971 23.2058C770.159 19.8169 774.563 17.7214 779.428 17.7214C784.292 17.7214 788.697 19.8169 791.884 23.2058C794.379 25.8562 796.128 29.3009 796.772 33.1514L904.016 16.9502C904.153 14.3932 905.184 12.0899 906.783 10.3907C908.503 8.56268 910.879 7.43243 913.503 7.43243C916.126 7.43243 918.502 8.56268 920.222 10.3907C921.941 12.2173 923.004 14.7434 923.004 17.5325C923.004 20.3212 921.941 22.8463 920.222 24.6732C919.983 24.927 919.731 25.1678 919.469 25.3935L953.968 92.9877L1021.78 74.8732C1021.57 73.8177 1021.47 72.7239 1021.47 71.6035C1021.47 62.7236 1028.24 55.5242 1036.59 55.5242C1040.77 55.5242 1044.55 57.3249 1047.29 60.2343C1048.26 61.2659 1049.1 62.4373 1049.78 63.7177L1141.51 14.079C1141.01 12.8572 1140.74 11.5129 1140.74 10.1001C1140.74 7.31104 1141.8 4.78592 1143.52 2.95825C1145.24 1.13025 1147.62 0 1150.24 0C1152.87 0 1155.24 1.13025 1156.96 2.95825C1158.68 4.78592 1159.74 7.31104 1159.74 10.1001C1159.74 10.9738 1159.64 11.8214 1159.44 12.629C1159.01 14.4023 1158.14 15.9864 1156.96 17.2408C1156.08 18.1812 1155.02 18.9372 1153.84 19.4486L1172.21 77.8452C1173.18 77.5598 1174.21 77.4073 1175.28 77.4073C1178.47 77.4073 1181.37 78.7844 1183.46 81.0111C1184.41 82.0199 1185.2 83.2042 1185.77 84.5134L1264.56 50.8875C1264 49.209 1263.69 47.4013 1263.69 45.5189C1263.69 44.104 1263.86 42.733 1264.19 41.4255C1264.88 38.6295 1266.26 36.1314 1268.12 34.1482C1270.86 31.2391 1274.64 29.4381 1278.82 29.4381C1287.18 29.4381 1293.95 36.6375 1293.95 45.5189C1293.95 46.2153 1293.91 46.9019 1293.83 47.5754L1444.16 81.9065C1444.52 79.8658 1445.45 78.042 1446.78 76.6324C1448.5 74.8054 1450.87 73.6741 1453.5 73.6741C1456.12 73.6741 1458.5 74.8054 1460.22 76.6324C1461.94 78.4601 1463 80.9851 1463 83.7742C1463 86.5629 1461.94 89.0883 1460.22 90.916C1458.83 92.3885 1457.02 93.4085 1455 93.7486L1436.98 178.255C1440.04 179.112 1442.77 180.817 1444.94 183.121C1448.12 186.509 1450.1 191.191 1450.1 196.362C1450.1 201.532 1448.12 206.213 1444.94 209.601C1441.75 212.989 1437.34 215.086 1432.48 215.086C1429.01 215.086 1425.77 214.018 1423.05 212.177L1389.63 264.018C1389.96 264.299 1390.29 264.6 1390.59 264.922C1392.46 266.915 1393.62 269.667 1393.62 272.707C1393.62 275.748 1392.46 278.501 1390.59 280.494C1389.83 281.295 1388.96 281.973 1388.01 282.499L1418.13 355.187C1418.86 354.919 1419.65 354.775 1420.48 354.775C1422.49 354.775 1424.31 355.641 1425.63 357.042C1426.95 358.443 1427.76 360.379 1427.76 362.517C1427.76 364.655 1426.95 366.591 1425.63 367.992C1424.55 369.139 1423.13 369.928 1421.55 370.176L1427.04 465.215C1427.19 465.211 1427.34 465.209 1427.48 465.209C1432.28 465.209 1436.62 467.274 1439.76 470.614C1442.9 473.954 1444.85 478.569 1444.85 483.665C1444.85 488.76 1442.9 493.374 1439.76 496.713C1436.62 500.053 1432.28 502.119 1427.48 502.119C1422.69 502.119 1418.35 500.053 1415.2 496.713C1412.06 493.374 1410.12 488.76 1410.12 483.665C1410.12 481.917 1410.35 480.227 1410.78 478.625ZM1288.33 391.145L1268.28 422.136L1329.21 454.54C1328.95 453.783 1328.82 452.968 1328.82 452.118C1328.82 450.114 1329.58 448.298 1330.82 446.985C1332.05 445.671 1333.76 444.858 1335.65 444.858C1337.32 444.858 1338.84 445.494 1340.03 446.549L1358.81 426.715L1312.84 388.03C1312.44 388.567 1312.01 389.079 1311.55 389.565C1308.36 392.953 1303.96 395.049 1299.09 395.049C1295.04 395.049 1291.3 393.592 1288.33 391.145ZM1226.8 483.931L1266.44 422.641L1240.96 409.087L1199.45 431.94L1210 477.936C1211.15 477.685 1212.34 477.552 1213.56 477.552C1218.42 477.552 1222.83 479.648 1226.01 483.037C1226.29 483.325 1226.55 483.624 1226.8 483.931ZM1267.15 421.534L1287.36 390.29C1287.11 390.055 1286.87 389.814 1286.64 389.565C1285.51 388.368 1284.54 387.01 1283.75 385.525L1242.33 408.33L1267.15 421.534ZM1189.26 387.5L1199.14 430.607L1239.57 408.349L1193.54 383.869C1193.21 384.45 1192.82 384.985 1192.37 385.463C1191.51 386.38 1190.45 387.085 1189.26 387.5ZM1198 431.238L1188.04 387.815C1187.63 387.884 1187.21 387.92 1186.79 387.92C1184.61 387.92 1182.63 386.981 1181.2 385.463C1180.53 384.745 1179.98 383.898 1179.58 382.961L1113.83 407.807L1061.78 427.476C1061.82 427.631 1061.86 427.787 1061.89 427.946C1061.97 428.427 1062.02 428.924 1062.02 429.432C1062.02 431.57 1061.2 433.506 1059.89 434.907C1059.37 435.454 1058.78 435.919 1058.13 436.283L1081.55 495.352L1198 431.238ZM1313.59 386.963L1359.7 425.771L1414.89 367.481C1414.11 366.499 1413.56 365.308 1413.33 364.001L1316.67 374.996C1316.7 375.435 1316.71 375.878 1316.71 376.325C1316.71 380.276 1315.56 383.941 1313.59 386.963ZM1360.69 426.603L1414.27 471.693C1414.57 471.32 1414.88 470.96 1415.2 470.614C1417.97 467.672 1421.67 465.719 1425.79 465.295L1420.3 370.257C1418.57 370.213 1417 369.531 1415.77 368.427L1360.69 426.603ZM1194.11 382.679L1240.94 407.591L1281.26 385.392L1283.17 384.342C1282.64 383.145 1282.22 381.879 1281.93 380.559C1281.84 380.152 1281.76 379.737 1281.7 379.32C1281.59 378.602 1281.52 377.872 1281.49 377.13L1194.67 379.941C1194.63 380.904 1194.43 381.827 1194.11 382.679ZM1080.09 495.103L1056.98 436.801C1056.27 437.044 1055.52 437.175 1054.73 437.175C1052.72 437.175 1050.9 436.308 1049.58 434.907C1048.26 433.506 1047.45 431.57 1047.45 429.432C1047.45 427.761 1047.95 426.214 1048.79 424.949L1043.09 419.813L1001.97 382.771C1000.66 384.159 998.846 385.018 996.844 385.018C994.997 385.018 993.31 384.286 992.026 383.082L952.165 423.485C954.621 426.531 956.316 430.292 956.933 434.434C957.103 435.575 957.192 436.745 957.192 437.938C957.192 440.474 956.791 442.91 956.056 445.18L957.055 445.582L1080.09 495.103ZM1002.79 381.754L1044.72 419.535L1049.61 423.933C1050.63 422.855 1051.95 422.098 1053.43 421.815L1053.1 418.114L1044.3 319.342C1042.56 319.333 1040.99 318.582 1039.85 317.371C1038.71 316.154 1038 314.472 1038 312.614C1038 310.756 1038.71 309.073 1039.85 307.855C1040.93 306.715 1042.39 305.982 1044 305.894L1046.24 255.532C1044.85 255.843 1043.41 256.005 1041.93 256.005C1039.83 256.005 1037.81 255.678 1035.9 255.068L999.739 370.167C1000.59 370.558 1001.35 371.115 1002 371.8C1003.31 373.202 1004.13 375.137 1004.13 377.275C1004.13 378.944 1003.63 380.49 1002.79 381.754ZM1061.36 426.218L1107.03 408.962L1179.16 381.704C1178.99 381.01 1178.89 380.282 1178.89 379.53C1178.89 377.359 1179.67 375.38 1180.94 373.89L1126.47 312.267C1124.83 313.703 1122.72 314.565 1120.43 314.565C1118.82 314.565 1117.31 314.139 1115.98 313.388C1115.14 312.915 1114.38 312.314 1113.71 311.607C1112.35 310.153 1111.39 308.256 1111.06 306.139L1050.66 312.605V312.614C1050.66 314.472 1049.95 316.154 1048.81 317.371C1047.94 318.298 1046.81 318.957 1045.55 319.218L1054.34 417.904L1054.67 421.689H1054.73C1056.03 421.689 1057.25 422.048 1058.3 422.678C1058.88 423.026 1059.42 423.457 1059.89 423.957C1060.5 424.607 1061 425.371 1061.36 426.218ZM1194.63 378.609L1281.48 375.797C1281.61 370.837 1283.56 366.358 1286.64 363.085C1288.45 361.155 1290.66 359.644 1293.13 358.702L1267.96 275.059L1192.25 373.476L1192.37 373.595C1193.61 374.911 1194.43 376.66 1194.63 378.609ZM1316.53 373.67L1413.19 362.675L1413.19 362.517C1413.19 360.379 1414.01 358.443 1415.33 357.042C1415.81 356.524 1416.37 356.08 1416.98 355.725L1386.86 283.037C1385.74 283.478 1384.53 283.718 1383.26 283.718C1380.68 283.718 1378.32 282.713 1376.5 281.053C1376.31 280.874 1376.12 280.687 1375.94 280.494C1374.9 279.394 1374.09 278.063 1373.56 276.579L1310.46 362.018C1310.55 362.1 1310.64 362.183 1310.73 362.267C1311.01 362.531 1311.29 362.803 1311.55 363.085C1314.18 365.883 1315.98 369.562 1316.53 373.67ZM1267.5 273.543L1266.94 271.688C1266.05 270.329 1265.53 268.678 1265.53 266.897C1265.53 264.579 1266.41 262.481 1267.84 260.963C1269.02 259.709 1270.57 258.85 1272.31 258.59L1269.04 202.995H1268.94C1265.74 202.995 1262.85 201.618 1260.75 199.391C1258.66 197.164 1257.36 194.088 1257.36 190.691C1257.36 189.822 1257.45 188.973 1257.61 188.154L1223.9 204.425L1152.77 238.758C1152.67 242.62 1151.15 246.109 1148.75 248.658C1146.38 251.186 1143.13 252.792 1139.53 252.928L1139.47 252.93L1124.38 295.276C1125.42 295.78 1126.35 296.478 1127.15 297.325C1128.87 299.152 1129.93 301.677 1129.93 304.466C1129.93 307.129 1128.97 309.551 1127.38 311.355L1181.85 372.977C1182.46 372.46 1183.14 372.037 1183.87 371.728C1184.78 371.347 1185.76 371.138 1186.79 371.138C1187.38 371.138 1187.96 371.209 1188.52 371.342C1189.53 371.582 1190.46 372.025 1191.28 372.63L1267.5 273.543ZM1268.9 273.829L1294.33 358.296C1295.84 357.843 1297.44 357.601 1299.09 357.601C1302.97 357.601 1306.56 358.935 1309.47 361.193L1373.13 275.004C1372.99 274.301 1372.91 273.573 1372.9 272.826L1281.25 267.978C1281.02 269.863 1280.21 271.552 1279.01 272.83C1277.58 274.348 1275.6 275.288 1273.42 275.288C1271.75 275.288 1270.2 274.736 1268.93 273.796L1268.9 273.829ZM1281.32 266.647L1372.97 271.495C1373.23 268.939 1374.32 266.646 1375.94 264.923C1376.89 263.905 1378.04 263.086 1379.31 262.528C1379.76 262.33 1380.22 262.166 1380.7 262.036L1368.6 194.812L1280.47 191.757C1280.23 194.73 1279 197.4 1277.13 199.391C1275.33 201.299 1272.95 202.584 1270.29 202.912L1273.56 258.507C1275.68 258.545 1277.61 259.476 1279.01 260.963C1280.31 262.353 1281.16 264.227 1281.3 266.312C1281.31 266.423 1281.31 266.534 1281.32 266.647ZM1278.64 183.971L1352.82 138.457C1352.46 137.612 1352.25 136.673 1352.25 135.685C1352.25 133.964 1352.86 132.394 1353.86 131.204L1331.94 105.823L1275.56 114.821L1270.53 178.503C1273.09 178.877 1275.39 180.141 1277.13 181.991C1277.69 182.592 1278.2 183.257 1278.64 183.971ZM1363.98 132.16L1445.92 89.8655C1445.47 89.2355 1445.09 88.5479 1444.79 87.8147L1333.44 105.585L1354.79 130.301C1355.85 129.456 1357.16 128.956 1358.59 128.956C1360.33 128.956 1361.92 129.709 1363.06 130.927C1363.41 131.297 1363.72 131.713 1363.98 132.16ZM1368.35 193.472L1359.15 142.387C1358.97 142.405 1358.78 142.413 1358.59 142.413C1357.64 142.413 1356.74 142.191 1355.93 141.796C1355.25 141.46 1354.63 141.001 1354.11 140.442C1353.87 140.185 1353.64 139.906 1353.44 139.609L1279.27 185.123C1280.03 186.721 1280.48 188.52 1280.51 190.425L1368.35 193.472ZM1360.39 142.138L1369.64 193.517L1414.9 195.086C1415.13 191.504 1416.31 188.198 1418.16 185.449L1363.19 140.305C1363.15 140.35 1363.11 140.396 1363.06 140.44C1362.33 141.222 1361.41 141.814 1360.39 142.138ZM1369.88 194.857L1381.94 261.788C1382.37 261.728 1382.81 261.697 1383.26 261.697C1385.21 261.697 1387.03 262.269 1388.59 263.264L1422.01 211.421C1421.31 210.867 1420.64 210.259 1420.02 209.601C1416.85 206.225 1414.88 201.566 1414.86 196.417L1369.88 194.857ZM1363.95 139.25L1418.93 184.394C1419.28 183.952 1419.64 183.527 1420.02 183.121C1423.21 179.733 1427.62 177.637 1432.48 177.637C1433.6 177.637 1434.7 177.75 1435.76 177.962L1453.68 93.8723L1453.5 93.874C1450.87 93.874 1448.5 92.7426 1446.78 90.916L1446.77 90.9069L1364.53 133.359C1364.78 134.085 1364.92 134.868 1364.92 135.685C1364.92 136.063 1364.89 136.434 1364.83 136.794C1364.69 137.684 1364.39 138.515 1363.95 139.25ZM1247.78 117.905L1274.39 113.657L1278.5 61.5933C1274.45 61.5038 1270.79 59.7229 1268.12 56.8882C1266.84 55.5222 1265.78 53.9103 1265.02 52.1244L1186.24 85.75C1186.64 86.9929 1186.85 88.325 1186.85 89.7111C1186.85 91.4064 1186.53 93.0214 1185.95 94.4911L1235.33 120.047C1235.32 119.885 1235.31 119.723 1235.31 119.559C1235.31 117.702 1236.02 116.021 1237.16 114.803C1238.31 113.586 1239.89 112.83 1241.64 112.83C1243.39 112.83 1244.97 113.583 1246.12 114.8C1246.91 115.644 1247.49 116.71 1247.78 117.905ZM1275.67 113.453L1330.92 104.637L1289.6 56.8008C1287.06 59.539 1283.61 61.314 1279.76 61.5657L1275.67 113.453ZM1332.41 104.398L1444.35 86.5331C1444.12 85.6556 1444 84.7303 1444 83.7742C1444 83.5941 1444 83.4151 1444.01 83.2368L1293.61 48.8917C1293.09 51.4835 1291.98 53.8446 1290.44 55.8085L1332.41 104.398ZM1274.28 115.025L1247.96 119.225C1247.97 119.336 1247.97 119.446 1247.97 119.559C1247.97 121.417 1247.26 123.1 1246.12 124.317C1245.67 124.789 1245.16 125.192 1244.6 125.507L1265.15 179.06C1266.34 178.624 1267.61 178.387 1268.94 178.387C1269.05 178.387 1269.17 178.389 1269.28 178.392L1274.28 115.025ZM975.757 123.361L1163.77 91.0164C1163.74 90.723 1163.72 90.4264 1163.71 90.127L1051.23 75.6861C1050.54 78.4871 1049.16 80.9893 1047.29 82.9743C1044.55 85.8834 1040.77 87.6833 1036.59 87.6833C1029.73 87.6833 1023.94 82.8252 1022.08 76.1677L954.586 94.1983L967.185 118.883C967.94 118.546 968.768 118.359 969.637 118.359C971.383 118.359 972.966 119.113 974.112 120.331C974.89 121.157 975.467 122.197 975.757 123.361ZM1235.64 121.692L1185.4 95.6908C1184.87 96.6919 1184.22 97.6072 1183.46 98.411C1181.61 100.385 1179.12 101.691 1176.35 101.962L1177.2 125.152L1178.27 154.704L1179.04 175.769C1179.9 176.109 1180.68 176.642 1181.32 177.322C1181.75 177.787 1182.13 178.322 1182.42 178.907L1235.22 125.17L1236.66 123.709C1236.44 123.416 1236.25 123.101 1236.08 122.772C1235.9 122.429 1235.75 122.067 1235.64 121.692ZM1163.96 92.332L975.956 124.676C975.963 124.813 975.968 124.95 975.968 125.088C975.967 126.946 975.258 128.629 974.113 129.846C973.241 130.772 972.116 131.429 970.859 131.692L1033.42 213.488C1036.02 212.256 1038.9 211.571 1041.93 211.571C1047.7 211.571 1052.93 214.058 1056.71 218.079C1057.47 218.891 1058.18 219.764 1058.82 220.693C1059.03 221.008 1059.24 221.327 1059.44 221.654L1171.29 185.328C1170.79 184.365 1170.51 183.258 1170.51 182.08C1170.51 180.224 1171.22 178.542 1172.36 177.323C1173.51 176.105 1175.09 175.351 1176.84 175.351C1177.16 175.351 1177.47 175.375 1177.77 175.424L1177.04 155.384L1175.94 125.152L1175.1 102.013C1171.97 101.962 1169.15 100.596 1167.09 98.411C1165.55 96.7743 1164.44 94.6781 1163.96 92.332ZM1263.99 179.564L1243.44 126.012C1242.87 126.191 1242.27 126.288 1241.64 126.288C1241.25 126.288 1240.86 126.25 1240.49 126.177C1239.64 126.01 1238.85 125.661 1238.15 125.171C1237.93 125.018 1237.72 124.85 1237.53 124.67L1237.03 125.171L1182.93 180.236C1183.09 180.822 1183.17 181.441 1183.17 182.08C1183.17 183.937 1182.46 185.62 1181.32 186.838C1180.17 188.054 1178.59 188.809 1176.84 188.809C1176.71 188.809 1176.58 188.804 1176.45 188.796L1151.49 232.141C1152.19 233.728 1152.63 235.47 1152.75 237.305L1224.25 202.792L1258.06 186.471C1258.65 184.77 1259.57 183.246 1260.75 181.991C1261.69 180.997 1262.78 180.173 1263.99 179.564ZM1050.54 311.28L1110.94 304.814C1110.93 304.698 1110.93 304.583 1110.93 304.466C1110.93 301.997 1111.76 299.734 1113.15 297.979L1060.37 244.265C1059.39 246.198 1058.16 247.961 1056.71 249.499C1054.2 252.172 1051.04 254.167 1047.51 255.204L1045.26 305.956C1046.63 306.171 1047.87 306.856 1048.81 307.855C1049.67 308.774 1050.29 309.956 1050.54 311.28ZM1123.21 294.803L1138.14 252.906C1134.7 252.671 1131.6 251.091 1129.31 248.658C1126.82 246.013 1125.29 242.361 1125.29 238.326C1125.29 234.29 1126.82 230.638 1129.31 227.993C1131.8 225.35 1135.24 223.714 1139.03 223.714C1142.83 223.714 1146.27 225.35 1148.75 227.993C1149.54 228.827 1150.23 229.761 1150.81 230.777L1175.12 188.557C1174.06 188.24 1173.12 187.639 1172.36 186.838C1172.25 186.721 1172.15 186.601 1172.05 186.477L1060.12 222.827C1061.85 226.061 1062.83 229.802 1062.83 233.789C1062.83 237.08 1062.16 240.204 1060.95 243.013L1114.02 297.016C1115.71 295.37 1117.96 294.366 1120.43 294.366C1121.4 294.366 1122.33 294.52 1123.21 294.803ZM1032.26 214.084L969.334 131.81C968.388 131.762 967.495 131.493 966.702 131.05L912.848 218.196C913.554 218.733 914.216 219.33 914.828 219.981C917.55 222.874 919.283 226.819 919.441 231.193L1021.05 232.713C1021.31 227.005 1023.59 221.862 1027.15 218.079C1028.65 216.487 1030.37 215.136 1032.26 214.084ZM1021.03 234.044L919.44 232.525C919.278 236.891 917.546 240.829 914.828 243.719C914.278 244.303 913.689 244.844 913.063 245.337L993.277 370.523C994.331 369.892 995.548 369.532 996.844 369.532C997.432 369.532 998.003 369.606 998.55 369.746L1034.71 254.646C1031.84 253.524 1029.27 251.753 1027.15 249.499C1023.42 245.535 1021.09 240.078 1021.03 234.044ZM1051.5 74.3759L1163.73 88.7858C1163.95 85.757 1165.19 83.0339 1167.09 81.0111C1168.2 79.8321 1169.53 78.8918 1171.02 78.267L1152.65 19.8705C1151.88 20.0854 1151.08 20.1988 1150.24 20.1988C1147.62 20.1988 1145.24 19.0685 1143.52 17.2408C1142.97 16.6519 1142.48 15.9892 1142.08 15.2689L1050.35 64.9076C1051.23 66.9462 1051.72 69.2139 1051.72 71.6035C1051.72 72.5488 1051.65 73.4752 1051.5 74.3759ZM951.321 422.499L991.16 382.117C990.159 380.791 989.56 379.108 989.56 377.275C989.56 375.137 990.375 373.202 991.693 371.8C991.867 371.615 992.05 371.439 992.24 371.274L912.026 246.089C909.601 247.702 906.733 248.635 903.662 248.635C901.813 248.635 900.038 248.297 898.39 247.676L870.73 321.296C871.971 321.907 873.092 322.746 874.047 323.761C876.141 325.987 877.437 329.064 877.437 332.461C877.437 335.859 876.141 338.935 874.047 341.16C873.736 341.491 873.407 341.804 873.062 342.095L924.707 419.441C928.022 417.091 932.005 415.72 936.289 415.72C942.061 415.72 947.287 418.208 951.07 422.228C951.154 422.317 951.237 422.408 951.321 422.499ZM923.685 420.213L872.041 342.866C870.253 344.069 868.133 344.765 865.862 344.765C865.243 344.765 864.635 344.713 864.044 344.613L851.188 408.134C852.341 408.509 853.374 409.179 854.205 410.064C855.523 411.465 856.339 413.4 856.339 415.538C856.339 415.934 856.311 416.323 856.256 416.702L916.122 432.074C917.092 428.296 918.976 424.918 921.507 422.228C922.189 421.504 922.916 420.831 923.685 420.213ZM815.565 469.204L844.579 421.649C844.341 421.452 844.116 421.239 843.903 421.014C842.585 419.612 841.769 417.676 841.769 415.538C841.769 413.401 842.584 411.465 843.903 410.064C845.221 408.663 847.042 407.796 849.054 407.796C849.361 407.796 849.663 407.816 849.96 407.856L862.817 344.334C860.843 343.764 859.081 342.653 857.675 341.16C856.278 339.675 855.235 337.809 854.697 335.723L794.7 349.586L809.439 465.653C808.758 465.653 808.101 465.751 807.476 465.937L774.463 372.433C776.604 371.485 778.531 370.1 780.146 368.384C783.335 364.996 785.306 360.315 785.306 355.144C785.306 354.01 785.212 352.9 785.029 351.821L794.7 349.586L809.439 465.653C811.451 465.653 813.272 466.519 814.59 467.92C814.957 468.309 815.283 468.739 815.565 469.204ZM816.3 470.788L915.918 442.943C915.569 441.334 915.385 439.658 915.385 437.938C915.385 436.372 915.538 434.844 915.828 433.369L855.963 417.998C855.602 419.147 854.994 420.176 854.205 421.014C852.887 422.415 851.065 423.281 849.054 423.281C847.816 423.281 846.651 422.954 845.63 422.375L816.224 470.572C816.25 470.644 816.276 470.715 816.3 470.788ZM801.416 275.665L789.476 308.441L794.531 348.259L784.764 350.516C783.971 347.205 782.35 344.245 780.146 341.904C779.481 341.197 778.761 340.545 777.995 339.957L789.476 308.441L794.531 348.259L854.431 334.419C854.335 333.781 854.285 333.127 854.285 332.461C854.285 329.079 855.569 326.015 857.647 323.792L814.534 273.085C812.159 275.169 809.112 276.421 805.791 276.421C804.546 276.421 803.34 276.245 802.192 275.915C801.93 275.84 801.671 275.757 801.416 275.665ZM776.928 339.199L789.128 305.706L800.246 275.184C798.678 274.449 797.265 273.412 796.07 272.142C793.582 269.497 792.043 265.844 792.043 261.809C792.043 257.775 793.582 254.121 796.07 251.478C797.011 250.476 798.088 249.622 799.268 248.944L776.734 199.187C775.804 199.588 774.802 199.842 773.756 199.921C773.617 199.932 773.477 199.939 773.337 199.943L768.921 336.467C771.174 336.632 773.313 337.248 775.254 338.23C775.83 338.521 776.389 338.844 776.928 339.199ZM815.463 272.193L858.576 322.899C860.565 321.185 863.1 320.157 865.862 320.157C867.157 320.157 868.404 320.384 869.568 320.802L897.227 247.182C895.452 246.34 893.852 245.159 892.495 243.719C890.644 241.752 889.251 239.299 888.499 236.556C888.09 235.063 887.87 233.483 887.87 231.85C887.87 230.379 888.048 228.952 888.383 227.592L830.487 208.826L812.314 248.944C812.728 249.182 813.129 249.442 813.516 249.721C814.233 250.24 814.901 250.828 815.512 251.478C817.136 253.204 818.356 255.361 819.007 257.774C819.353 259.055 819.539 260.409 819.539 261.809C819.539 265.844 817.999 269.497 815.512 272.142L815.463 272.193ZM806.303 466.405L773.29 372.901C771.531 373.528 769.648 373.868 767.69 373.868C762.825 373.868 758.421 371.772 755.233 368.384C752.046 364.996 750.073 360.315 750.073 355.144C750.073 349.974 752.045 345.293 755.233 341.905C758.416 338.521 762.812 336.427 767.669 336.421L772.072 200.294L771.915 200.944L728.377 381.543L802.055 471.489L802.31 471.799C802.366 471.511 802.438 471.228 802.524 470.954C802.884 469.798 803.496 468.762 804.288 467.92C804.87 467.301 805.55 466.786 806.303 466.405ZM782.605 191.914L829.823 207.219L859.71 141.238C857.797 140.183 856.058 138.823 854.548 137.217C853.426 136.025 852.431 134.697 851.587 133.261L775.064 179.296C776.966 179.718 778.667 180.725 779.991 182.132C781.768 184.02 782.867 186.63 782.867 189.511C782.867 190.338 782.777 191.143 782.605 191.914ZM831.037 207.612L888.748 226.32C889.539 223.909 890.833 221.748 892.495 219.981C894.079 218.297 895.999 216.969 898.138 216.12L875.454 142.755C873.517 143.384 871.46 143.725 869.328 143.725C866.306 143.725 863.434 143.043 860.841 141.816L831.037 207.612ZM829.274 208.432L782.24 193.186C781.743 194.59 780.97 195.851 779.991 196.891C779.361 197.561 778.646 198.14 777.864 198.608L800.398 248.365C802.054 247.614 803.877 247.198 805.791 247.198C807.705 247.198 809.528 247.614 811.185 248.365L829.274 208.432ZM953.328 94.5349L888.197 111.933C889.501 114.832 890.232 118.079 890.232 121.507C890.232 127.642 887.892 133.197 884.11 137.218C882.014 139.446 879.473 141.203 876.643 142.326L899.331 215.705C900.707 215.288 902.16 215.065 903.662 215.065C906.64 215.065 909.426 215.941 911.803 217.465L965.655 130.319C965.483 130.17 965.319 130.013 965.162 129.846C964.016 128.629 963.306 126.946 963.306 125.088C963.306 123.231 964.014 121.548 965.16 120.33C965.442 120.031 965.751 119.76 966.08 119.522L953.328 94.5349ZM850.955 132.11C849.342 128.959 848.426 125.347 848.426 121.507C848.426 115.845 850.419 110.678 853.7 106.755L790.644 50.8837C787.597 53.5601 783.69 55.169 779.428 55.169C778.243 55.169 777.085 55.0445 775.966 54.8068L773.861 178.489L850.955 132.11Z" fill="#023E8A"/>
<line x1="769.605" y1="40.678" x2="692.295" y2="73.6898" stroke="#023E8A" stroke-width="1.5"/>
<line x1="672.999" y1="189.25" x2="774.263" y2="189.133" stroke="#023E8A" stroke-width="1.5"/>
<line y1="-0.75" x2="178.522" y2="-0.75" transform="matrix(0.81851 0.574493 -0.528494 0.848937 623.188 258.257)" stroke="#023E8A" stroke-width="1.5"/>
<line x1="774.547" y1="190.421" x2="660.62" y2="358.421" stroke="#023E8A" stroke-width="1.5"/>
<line x1="659.965" y1="360.251" x2="768.938" y2="355.14" stroke="#023E8A" stroke-width="1.5"/>
<line x1="672.951" y1="482.252" x2="811.365" y2="473.147" stroke="#023E8A" stroke-width="1.5"/>
</g>
<defs>
<clipPath id="clip0_153_66">
<rect width="1440" height="515" fill="white"/>
</clipPath>
</defs>
</svg>
