<svg viewBox="0 0 272 108" fill="none" xmlns="http://www.w3.org/2000/svg">
<g clip-path="url(#clip0_79_1000)">
<path fill-rule="evenodd" clip-rule="evenodd" d="M65.0773 31.723L59.9733 33.3976V36.7957C59.9733 39.4069 60.048 40.1652 60.2964 40.0701C60.9512 39.8195 70.78 36.7588 70.9301 36.7588C71.0156 36.7588 71.0857 46.9359 71.0857 59.3747V81.9906H64.8834H58.6812V85.24V88.4895H74.5744H90.4677V85.24V81.9906H84.2655H78.0632V55.9953V30L74.1222 30.0242L70.1812 30.0484L65.0773 31.723ZM127.605 40.5614C127.505 40.6622 127.423 41.1931 127.423 41.7413C127.423 42.6966 127.387 42.7377 126.564 42.7377C124.241 42.7377 121.731 44.3993 120.597 46.6887C119.95 47.996 119.928 48.192 119.931 52.8618C119.933 57.3926 119.97 57.7638 120.545 58.9848C121.641 61.3132 124.053 62.9964 126.311 63.0083L127.396 63.0141L127.474 64.3788L127.552 65.7436H129.619H131.687L131.765 64.3788L131.843 63.0141L132.928 63.0083C135.185 62.9964 137.597 61.3132 138.694 58.9848C139.268 57.7638 139.305 57.3926 139.308 52.8618C139.31 48.1889 139.289 47.9968 138.64 46.6854C137.539 44.4625 134.945 42.7377 132.703 42.7377C131.879 42.7377 131.843 42.6946 131.766 41.6329L131.687 40.5281L129.737 40.4532C128.664 40.4119 127.705 40.4608 127.605 40.5614ZM145.513 53.1358V65.3536H147.779H150.045L152.566 58.7269C153.952 55.0821 155.157 51.7459 155.243 51.3128C155.627 49.3834 155.716 50.8186 155.648 57.8397L155.576 65.3536H157.651H159.726V53.1257V40.8978L157.494 40.9729L155.262 41.048L153.586 45.3372C152.665 47.6963 151.408 51.0302 150.792 52.7459L149.674 55.8653L149.66 48.3917L149.647 40.918H147.58H145.513V53.1358ZM167.221 53.1358V65.3536H169.417H171.614V60.0246V54.6956H174.456H177.299V60.0246V65.3536H179.367H181.434V53.1358V40.918H179.367H177.299V45.5972V50.2763H174.456H171.614V45.5972V40.918H169.417H167.221V53.1358ZM186.861 42.9977V45.0773H189.445H192.029V55.2155V65.3536H194.226H196.423V55.2155V45.0773H198.878H201.333V42.9977V40.918H194.097H186.861V42.9977ZM207.794 53.1358V65.3536H214.125H220.456V63.274V61.1944H216.192H211.928V57.945V54.6956H215.676H219.423V52.6159V50.5363H215.676H211.928V47.8068V45.0773H216.063H220.198V42.9977V40.918H213.996H207.794V53.1358ZM226.4 41.0496C226.4 41.1325 227.57 43.7684 229.001 46.9071L231.601 52.6136L228.742 58.7885C227.169 62.1848 225.882 65.0557 225.883 65.1685C225.883 65.2811 226.939 65.3396 228.229 65.2985L230.574 65.2237L232.2 61.5105C233.094 59.4683 233.882 57.7414 233.95 57.6728C234.018 57.6044 234.824 59.2751 235.742 61.386L237.411 65.2237L239.788 65.2985C241.095 65.3396 242.164 65.3269 242.164 65.2702C242.164 65.2138 240.885 62.3852 239.322 58.9848C237.758 55.5843 236.479 52.7105 236.479 52.599C236.479 52.4872 237.58 50.0338 238.926 47.1468C240.272 44.26 241.444 41.6729 241.531 41.3979C241.68 40.9258 241.556 40.9022 239.308 40.9729L236.927 41.048L235.675 44.0375C234.986 45.6817 234.326 47.2487 234.209 47.5198C234.042 47.9051 233.68 47.2531 232.55 44.5303L231.103 41.048L228.752 40.9731C227.459 40.9321 226.4 40.9664 226.4 41.0496ZM57.164 44.8501C51.5189 45.7935 46.4062 50.673 45.2681 56.203C44.8719 58.1288 44.9212 61.5419 45.3738 63.4716C46.5046 68.2971 50.6103 72.624 55.5801 74.2282C56.9815 74.6805 58.1483 74.7928 62.6222 74.9059L67.9846 75.0413V71.4974V67.9532L64.1728 67.9511C57.8904 67.948 55.6036 67.2913 53.4995 64.8868C51.6623 62.7874 51.1013 59.1345 52.2231 56.5745C52.9325 54.9552 54.8237 53.0506 56.4608 52.3066C57.6645 51.7596 58.2121 51.7014 62.8806 51.6229L67.9846 51.5371V48.0472V44.5574L63.2683 44.5878C60.6744 44.6044 57.9274 44.7224 57.164 44.8501ZM81.0183 44.8974C80.947 45.0846 80.9217 46.6344 80.962 48.3418L81.0351 51.4461L86.2037 51.5769C90.8869 51.6954 91.4934 51.7638 92.6643 52.3042C96.2867 53.9765 98.2554 57.8454 97.331 61.4751C96.6237 64.2522 94.9274 66.1665 92.2273 67.2344C91.0543 67.6984 90.1328 67.7943 85.8734 67.896L80.8914 68.015L80.9633 71.4285L81.0351 74.8419L86.3329 74.8289C91.0153 74.8172 91.8407 74.7502 93.4396 74.2523C98.3634 72.7186 102.343 68.6615 103.772 63.7203C104.321 61.818 104.325 57.6983 103.779 55.6264C102.404 50.4141 97.7951 46.0867 92.4059 44.9483C89.9757 44.4352 81.2098 44.3959 81.0183 44.8974ZM124.819 47.6568L124.063 48.4166V52.8759V57.3351L124.819 58.095C125.372 58.6515 125.821 58.8548 126.498 58.8548H127.423V52.8759V46.897H126.498C125.821 46.897 125.372 47.1002 124.819 47.6568ZM131.816 52.8759V58.8548H132.74C133.417 58.8548 133.867 58.6515 134.42 58.095L135.176 57.3351V52.8759V48.4166L134.42 47.6568C133.867 47.1002 133.417 46.897 132.74 46.897H131.816V52.8759ZM136.075 72.8535C135.3 73.1036 134.521 73.7283 134.183 74.3698C134.003 74.7106 133.883 76.203 133.883 78.1002V81.2628L134.762 82.1466C135.499 82.8877 135.827 83.0304 136.795 83.0304C137.551 83.0304 138.171 82.8542 138.595 82.5194C139.348 81.9236 139.952 80.6131 139.736 80.0457C139.532 79.513 138.018 79.5089 138.018 80.041C138.018 80.6696 137.056 81.4811 136.538 81.2888C135.784 81.0088 135.7 80.6761 135.7 77.9614C135.7 76.5316 135.786 75.2332 135.89 75.0759C136.365 74.3613 137.76 74.5814 137.76 75.3709C137.76 75.633 138.042 75.7518 138.664 75.7518C139.464 75.7518 139.569 75.674 139.569 75.0819C139.569 74.3483 138.307 72.8923 137.672 72.8923C137.459 72.8923 137.13 72.8457 136.941 72.7886C136.752 72.7316 136.362 72.761 136.075 72.8535ZM148.7 72.9367C148.25 73.0573 147.581 73.5151 147.214 73.9539C146.574 74.719 146.546 74.8861 146.546 78.0074V81.2628L147.425 82.1466C148.169 82.8948 148.486 83.0304 149.488 83.0304C151.008 83.0304 152.176 82.0668 152.404 80.6259C152.558 79.6529 152.556 79.6511 151.637 79.6511C150.896 79.6511 150.701 79.7587 150.635 80.2061C150.589 80.5115 150.314 80.9194 150.023 81.1125C149.573 81.4115 149.409 81.4039 148.925 81.0626C148.4 80.6929 148.355 80.4499 148.355 77.9614C148.355 75.4915 148.403 75.228 148.912 74.869C149.542 74.425 150.423 74.7177 150.423 75.3709C150.423 75.6418 150.721 75.7518 151.456 75.7518C152.626 75.7518 152.613 75.7718 152.143 74.6386C151.541 73.1912 150.209 72.5328 148.7 72.9367ZM161.043 72.9783C159.69 73.4452 159.199 74.3238 159.029 76.5781C158.689 81.1047 159.58 83.0304 162.014 83.0304C164.454 83.0304 165.155 81.8856 165.149 77.9094C165.145 74.8994 164.931 74.1507 163.861 73.3979C162.951 72.7574 162.064 72.6253 161.043 72.9783ZM121.773 75.6748C121.134 77.8795 120.96 78.9689 120.961 80.7559L120.962 83.0304H121.867H122.771V81.6007V80.171H123.934H125.097V81.6007V83.0304H126.001H126.906L126.905 80.6259C126.905 78.7693 126.737 77.6291 126.171 75.6218L125.437 73.0223L124.012 72.9453L122.587 72.8686L121.773 75.6748ZM171.872 77.9614V83.0304H174.198H176.524V84.0703C176.524 85.0854 176.545 85.1101 177.428 85.1101H178.333V83.1604C178.333 81.6007 178.255 81.2108 177.945 81.2108C177.617 81.2108 177.558 80.5755 177.558 77.0515V72.8923H176.653H175.749V77.0515V81.2108H174.715H173.681V77.0515V72.8923H172.777H171.872V77.9614ZM184.535 77.9614V83.0304H185.509H186.483L187.561 80.236L188.638 77.4415L188.654 80.236L188.67 83.0304H189.574H190.479V77.9458V72.8608L189.523 72.9417L188.566 73.0223L187.467 75.7518L186.368 78.4813L186.356 75.6868L186.344 72.8923H185.44H184.535V77.9614ZM198.016 75.7237C197.382 77.9351 197.198 79.0802 197.198 80.8045V83.0304H198.103H199.007V81.6007V80.171H200.157H201.306L201.384 81.5357L201.462 82.9005H202.367H203.271L203.343 80.9508C203.402 79.3581 203.256 78.454 202.544 76.0117L201.672 73.0223L200.253 72.9456L198.834 72.8689L198.016 75.7237ZM209.861 77.9614V83.0304H212.187H214.513V84.0859V85.1415L215.482 85.0607L216.451 84.9801L216.528 83.2044C216.597 81.5994 216.554 81.4151 216.076 81.2893C215.57 81.1564 215.546 80.9636 215.546 77.0211V72.8923H214.642H213.737V77.0515V81.2108H212.704H211.67V77.0515V72.8923H210.765H209.861V77.9614ZM222.782 77.977V83.0619L223.728 82.9811L224.673 82.9005L225.688 80.171C226.246 78.6697 226.722 77.422 226.745 77.398C226.769 77.3739 226.788 78.6021 226.788 80.1276V82.9005H227.692H228.597V77.9614V73.0223L227.652 72.943L226.707 72.8637L225.664 75.5425L224.619 78.2213L224.606 75.5568L224.591 72.8923H223.687H222.782V77.977ZM236.678 73.3459C235.488 74.0883 235.021 76.6907 235.827 78.0913C236.032 78.4488 236.278 78.8936 236.372 79.0799C236.467 79.2663 236.239 80.1437 235.865 81.0296C235.491 81.9155 235.186 82.7354 235.186 82.8511C235.187 82.967 235.622 83.0255 236.154 82.9811C237.078 82.9041 237.151 82.8282 237.77 81.2786C238.216 80.1593 238.557 79.656 238.869 79.6539C239.254 79.6516 239.322 79.9037 239.322 81.3408V83.0304H240.226H241.131V77.9614V72.8923L239.257 72.8993C237.957 72.904 237.168 73.0407 236.678 73.3459ZM161.471 74.7327C161.081 74.9607 161.018 75.4141 161.018 77.9827C161.018 80.8375 161.044 80.9773 161.6 81.1944C161.984 81.3444 162.356 81.309 162.698 81.0902C163.152 80.7995 163.224 80.4278 163.29 78.0604C163.36 75.5638 163.324 75.3278 162.809 74.9069C162.17 74.3841 162.085 74.373 161.471 74.7327ZM123.565 75.9467C123.4 76.626 123.204 77.3863 123.13 77.6364C123.019 78.01 123.159 78.0913 123.917 78.0913C124.424 78.0913 124.838 77.9632 124.838 77.8064C124.838 77.4394 124.052 74.7119 123.946 74.7119C123.902 74.7119 123.731 75.2675 123.565 75.9467ZM199.803 76.0416C199.609 76.8116 199.396 77.5878 199.33 77.7664C199.248 77.9897 199.511 78.0913 200.171 78.0913H201.132L200.952 77.1246C200.852 76.593 200.633 75.8167 200.464 75.3998L200.156 74.6418L199.803 76.0416ZM237.618 75.0722C237.542 75.2703 237.517 75.9428 237.561 76.567C237.637 77.6362 237.687 77.7014 238.417 77.7014C239.18 77.7014 239.194 77.677 239.27 76.2067L239.347 74.7119H238.551C238.111 74.7119 237.693 74.8731 237.618 75.0722Z" fill="#023E8A"/>
</g>
<defs>
<clipPath id="clip0_79_1000">
<rect width="271.164" height="108" fill="white"/>
</clipPath>
</defs>
</svg>
