<svg viewBox="0 0 31 28" fill="none" xmlns="http://www.w3.org/2000/svg">
<path fill-rule="evenodd" clip-rule="evenodd" d="M1.36455 0.115932C1.05107 0.246056 0.641852 0.656779 0.557035 0.926265C0.507512 1.08359 0.490746 5.25957 0.504765 13.9232L0.525476 26.6884L0.701589 26.927C0.798452 27.0582 1.00176 27.245 1.15343 27.3421L1.42922 27.5188L14.6768 27.5355C26.8479 27.5508 27.9531 27.5434 28.2788 27.4451C29.2099 27.164 30.066 26.381 30.3828 25.5205C30.4904 25.2283 30.5 24.2649 30.5 13.8075C30.5 2.7219 30.4963 2.40634 30.3656 2.1731C30.1926 1.86472 29.8991 1.61106 29.5689 1.48456C29.1794 1.33531 24.3534 1.33531 23.9639 1.48456C23.6166 1.61759 23.3262 1.87512 23.1664 2.19184C23.041 2.4402 23.0358 2.88633 23.0343 13.6439L23.0328 24.8375H22.2579H21.483L21.4814 17.7789C21.48 11.0911 21.4731 10.7067 21.3516 10.4613C21.1903 10.1356 20.7921 9.81092 20.4458 9.72273C20.2834 9.68138 19.2113 9.65483 17.6943 9.65463C14.9877 9.65424 14.9042 9.66393 14.485 10.0292C14.0199 10.4344 14.0546 9.86687 14.0158 17.6981L13.9806 24.8052L13.2233 24.8235L12.466 24.8419L12.4644 21.9161C12.463 19.2258 12.4525 18.9695 12.3346 18.7313C12.1733 18.4056 11.7751 18.0809 11.4288 17.9928C11.2664 17.9514 10.1943 17.9249 8.67728 17.9247C5.9707 17.9243 5.88722 17.934 5.468 18.2992C5.02327 18.6866 5.03729 18.581 4.99876 21.8331L4.96354 24.8052H4.22386H3.48418L3.44896 12.8469L3.41374 0.888598L3.22114 0.635652C2.91076 0.228095 2.5891 0.0659246 2.04773 0.0442804C1.75799 0.0326507 1.49995 0.0597219 1.36455 0.115932ZM26.0089 14.4838L26.0267 24.8052H26.7664H27.5061L27.5239 14.4838L27.5417 4.16243H26.7664H25.9911L26.0089 14.4838ZM16.9917 18.6188L17.0097 24.8052H17.7494H18.4891L18.507 18.6188L18.525 12.4325H17.7494H16.9738L16.9917 18.6188ZM7.95747 22.7722V24.8419L8.71476 24.8235L9.47204 24.8052L9.49064 22.7538L9.50924 20.7025H8.73335H7.95747V22.7722Z" fill="white"/>
</svg>
