<svg viewBox="0 0 34 32" fill="none" xmlns="http://www.w3.org/2000/svg">
<path fill-rule="evenodd" clip-rule="evenodd" d="M11.8229 0.590074C10.1107 1.0608 9.00065 2.83367 9.354 4.53306C9.41085 4.80642 9.54926 5.21717 9.66157 5.44587L9.86577 5.86165L7.36371 9.4037C4.97303 12.7881 4.85416 12.9436 4.69197 12.8979C4.59861 12.8716 4.26878 12.8522 3.95903 12.8548C1.79906 12.8727 0.208029 14.8702 0.653143 17.0053C0.966803 18.5097 2.43797 19.7091 3.9697 19.7091C5.70927 19.7091 7.18713 18.4226 7.40055 16.7225C7.50477 15.8924 7.29792 15.02 6.83319 14.3293C6.7069 14.1415 6.6162 13.955 6.63164 13.9147C6.65801 13.8459 11.2762 7.27932 11.3801 7.16288C11.4066 7.13313 11.6002 7.15877 11.8102 7.21981C12.3994 7.39112 13.401 7.33174 13.9638 7.09211C14.2007 6.99131 14.4392 6.89727 14.4939 6.88315C14.5845 6.85976 14.7468 7.02855 15.7678 8.2083L16.0147 8.49367L15.2046 8.89348C12.5388 10.2091 10.7247 12.604 10.1474 15.5695C9.99013 16.3774 9.98868 17.9929 10.1444 18.8476C10.7653 22.2553 13.2531 25.0722 16.5147 26.0607C17.6377 26.4011 17.8857 26.4348 19.2644 26.4346C20.2741 26.4344 20.6787 26.4077 21.1161 26.312C22.3893 26.0335 23.4655 25.5726 24.5264 24.8515L25.1834 24.4048L25.55 24.7714L25.9164 25.138L25.7696 25.5548C25.5574 26.157 25.5185 26.745 25.6513 27.3422C25.8257 28.126 26.0999 28.5101 27.4144 29.8121C28.4615 30.8493 28.6389 30.997 29.1007 31.2164C29.5659 31.4374 29.6829 31.4643 30.2877 31.4906C30.8524 31.515 31.0258 31.4969 31.3819 31.3761C33.2839 30.7314 34.1318 28.6087 33.1948 26.8382C33.0794 26.6202 32.5963 26.0785 31.8221 25.2991C30.8523 24.3227 30.5478 24.0566 30.2045 23.8854C29.3762 23.4724 28.503 23.4017 27.7031 23.6829L27.3621 23.8028L26.9591 23.3961L26.5562 22.9895L26.8571 22.5587C27.5587 21.5543 28.0718 20.3716 28.3522 19.1126C28.557 18.1929 28.5747 16.3492 28.387 15.4677C28.2106 14.6393 27.8522 13.6126 27.5039 12.9381C27.3353 12.6115 27.2237 12.3219 27.256 12.2946C27.2882 12.2671 27.4977 12.0738 27.7215 11.8649L28.1285 11.485L28.5174 11.6889C29.0517 11.969 29.5374 12.0862 30.1681 12.0871C32.0579 12.0899 33.5759 10.5644 33.5759 8.66279C33.5759 7.13578 32.5637 5.80877 31.0626 5.36774C30.606 5.23361 29.7442 5.23182 29.237 5.36396C28.1657 5.64309 27.2205 6.55571 26.8768 7.64301C26.7094 8.17272 26.6909 9.11376 26.8387 9.58608L26.9371 9.90073L26.4434 10.3428L25.9496 10.7848L25.572 10.4151C25.1428 9.99483 24.3426 9.40907 23.7289 9.06578C22.357 8.29837 20.2965 7.83083 18.7986 7.94707L18.2334 7.99094L17.0759 6.68295C16.2864 5.79074 15.922 5.33069 15.9297 5.23566C15.9358 5.15905 15.991 4.90252 16.0524 4.6656C16.4989 2.94004 15.3605 1.05152 13.5966 0.591995C13.1289 0.470123 12.2625 0.469196 11.8229 0.590074ZM12.0362 2.63155C11.4826 2.92142 11.1507 3.66292 11.3098 4.25419C11.6679 5.58405 13.531 5.71831 14.0597 4.45234C14.2766 3.93297 14.1313 3.24541 13.7237 2.86323C13.2888 2.45527 12.5632 2.35566 12.0362 2.63155ZM29.4618 7.40305C28.8781 7.70862 28.5752 8.42879 28.765 9.05955C28.9672 9.73154 29.459 10.0998 30.1541 10.0998C31.6775 10.0998 32.1417 8.07762 30.7792 7.37661C30.4254 7.19463 29.8374 7.20642 29.4618 7.40305ZM18.6349 9.94069C17.4151 10.1172 16.7828 10.3047 15.9382 10.7404C12.8582 12.3289 11.3147 15.8988 12.2758 19.2117C13.057 21.9046 15.2187 23.8646 17.982 24.3855C18.849 24.5489 20.3337 24.4874 21.1787 24.2531C23.9859 23.4745 26.071 21.1201 26.4897 18.256C26.609 17.44 26.5381 16.1899 26.326 15.3699C25.6524 12.7646 23.4839 10.6703 20.8687 10.0994C20.2922 9.97356 19.0283 9.88377 18.6349 9.94069ZM19.2826 13.0193C18.9544 13.0888 18.7355 13.2641 18.5977 13.5676C18.4801 13.8268 18.4722 14.0454 18.4722 17.0582C18.4722 20.0862 18.4796 20.2886 18.5994 20.5526C18.7818 20.9546 19.0663 21.1144 19.545 21.0837C19.8349 21.0651 19.9662 21.0209 20.098 20.8978C20.4654 20.5545 20.457 20.6441 20.457 17.0582C20.457 14.3359 20.4402 13.7059 20.3639 13.5591C20.1445 13.1373 19.7218 12.9263 19.2826 13.0193ZM3.55387 14.8926C3.15772 15.0406 2.91959 15.2512 2.73898 15.6137C1.97113 17.1549 3.98076 18.5023 5.09878 17.1959C5.87247 16.2918 5.30782 14.9515 4.1036 14.8336C3.92835 14.8165 3.68917 14.8422 3.55387 14.8926ZM15.1302 14.9552C14.6595 15.2252 14.6264 15.3625 14.6264 17.0482C14.6264 18.4502 14.6343 18.5454 14.7711 18.7888C14.9578 19.1211 15.391 19.3445 15.7389 19.288C16.0126 19.2436 16.2434 19.0912 16.4444 18.8222C16.5713 18.6524 16.5824 18.5336 16.6011 17.1481C16.6201 15.7429 16.6131 15.6401 16.4812 15.3675C16.3784 15.1551 16.2661 15.0418 16.0591 14.9416C15.6982 14.7668 15.4526 14.7704 15.1302 14.9552ZM23.0953 14.8694C22.8478 14.945 22.6457 15.0968 22.5019 15.315C22.3915 15.4825 22.3793 15.6545 22.3789 17.048C22.3785 18.4028 22.3929 18.6197 22.4944 18.7922C22.8642 19.4206 23.8158 19.4078 24.2005 18.7693C24.3226 18.5667 24.333 18.4318 24.333 17.0582C24.333 15.6779 24.323 15.5501 24.1982 15.3375C23.9792 14.9648 23.4785 14.7522 23.0953 14.8694ZM28.394 25.5401C27.7307 25.7401 27.3818 26.4763 27.6482 27.114C27.773 27.4129 29.4528 29.1289 29.8514 29.3647C30.09 29.5057 30.197 29.5283 30.5184 29.505C30.9768 29.4718 31.2672 29.2902 31.4572 28.9178C31.6012 28.6355 31.6264 28.2367 31.5187 27.9475C31.4179 27.677 29.4901 25.7517 29.1698 25.6017C28.8871 25.4693 28.6827 25.4531 28.394 25.5401Z" fill="white"/>
</svg>
