<svg viewBox="0 0 30 33" fill="none" xmlns="http://www.w3.org/2000/svg">
<path fill-rule="evenodd" clip-rule="evenodd" d="M2.17992 0.0658892C1.11868 0.241093 0.249057 1.13023 0.0721284 2.22079C-0.0240428 2.81408 -0.0240428 29.6916 0.0721284 30.2849C0.253997 31.4062 1.11526 32.2635 2.24164 32.4445C2.52317 32.4898 5.36464 32.5135 10.5398 32.5138L18.4098 32.5143L17.8867 31.9905L17.3636 31.4668L9.74806 31.4496L2.1325 31.4324L1.81006 31.234C1.61021 31.111 1.41181 30.9135 1.28823 30.7145L1.08891 30.3936V16.2529V2.11214L1.28823 1.79118C1.41181 1.59224 1.61021 1.39474 1.81006 1.27173L2.13243 1.07331L7.90132 1.05508C13.1301 1.03863 13.6979 1.04708 13.9666 1.14524C14.2177 1.23698 15.0864 2.07228 19.6451 6.60575C23.8128 10.7505 25.0571 12.0246 25.1603 12.2531C25.2877 12.5353 25.2935 12.6796 25.2949 15.5659L25.2964 18.5837L25.8233 19.1052L26.3503 19.6266L26.3499 16.2841C26.3497 14.4457 26.322 12.7746 26.2885 12.5706C26.14 11.6681 26.4268 11.9892 20.3995 5.97804C14.355 -0.0502357 14.6419 0.204308 13.7205 0.054021C13.2357 -0.0249914 2.66467 -0.0141722 2.17992 0.0658892ZM9.22393 15.7001C9.22393 15.7206 9.83317 16.6842 10.5777 17.8414C11.3223 18.9986 11.9374 19.9654 11.9445 19.9899C11.9517 20.0144 11.2981 21.0557 10.4919 22.304C9.68582 23.5522 9.02632 24.5897 9.02632 24.6097C9.02632 24.6296 9.46884 24.6459 10.0096 24.6459H10.993L12.0352 22.9435C12.6084 22.0073 13.0922 21.2413 13.1103 21.2413C13.1284 21.2413 13.6122 22.0073 14.1854 22.9435L15.2276 24.6459H16.2768C16.8539 24.6459 17.326 24.6308 17.326 24.6124C17.326 24.5939 16.672 23.603 15.8727 22.4102C15.0733 21.2175 14.4043 20.2025 14.3858 20.1548C14.3674 20.107 14.9459 19.1364 15.6714 17.9979C16.3969 16.8593 17.0226 15.8682 17.0618 15.7952C17.1318 15.6649 17.1164 15.6627 16.1262 15.6644L15.1194 15.6661L14.2484 17.1574C13.7694 17.9777 13.3365 18.7046 13.2864 18.7729C13.203 18.8864 13.1127 18.7597 12.2214 17.2798L11.2475 15.6627H10.2358C9.67923 15.6627 9.22393 15.6795 9.22393 15.7001ZM22.9947 20.5202C20.873 20.7765 19.0159 22.0764 18.0843 23.9574C17.2082 25.7261 17.2082 27.7622 18.0843 29.5309C19.6121 32.6156 23.3955 33.8806 26.515 32.3497C29.6139 30.8288 30.8846 27.0627 29.3467 23.9574C28.6564 22.5637 27.4001 21.427 25.9493 20.8834C25.0802 20.5578 23.8929 20.4118 22.9947 20.5202ZM23.0484 21.3466C22.7082 21.5568 22.6615 21.7286 22.6615 22.7708V23.7279H21.9995C21.2524 23.7279 21.0119 23.8098 20.8512 24.1191C20.7326 24.3475 20.722 24.6644 20.8265 24.8633C20.8679 24.942 21.4138 25.7162 22.0397 26.5836C23.1906 28.1787 23.325 28.3178 23.7155 28.3178C24.106 28.3178 24.2403 28.1787 25.3913 26.5836C26.0171 25.7162 26.5631 24.942 26.6044 24.8633C26.7089 24.6644 26.6984 24.3475 26.5797 24.1191C26.419 23.8098 26.1786 23.7279 25.4314 23.7279H24.7694V22.7708C24.7694 21.7214 24.7214 21.5492 24.3715 21.3435C24.1221 21.1967 23.2877 21.1988 23.0484 21.3466Z" fill="white"/>
</svg>
