<svg viewBox="0 0 27 36" fill="none" xmlns="http://www.w3.org/2000/svg">
<path fill-rule="evenodd" clip-rule="evenodd" d="M2.98497 0.875116C1.64131 1.14089 0.407109 2.40752 0.154487 3.77981C0.0500668 4.34701 0.0500668 31.6593 0.154487 32.2265C0.412219 33.6267 1.64596 34.8687 3.04469 35.1359C3.60867 35.2437 23.3966 35.2437 23.9606 35.1359C25.364 34.8678 26.5922 33.6314 26.8508 32.2265C26.9568 31.6511 26.9551 4.34301 26.8491 3.78019C26.583 2.36649 25.3557 1.12921 23.961 0.868739C23.4492 0.773155 3.46969 0.779225 2.98497 0.875116ZM3.24369 3.35875C2.963 3.48499 2.70862 3.75561 2.60047 4.04328C2.54623 4.18734 2.51908 5.73328 2.51908 8.67262V13.0857H13.5044H24.4897L24.4689 8.55798C24.4485 4.12157 24.4449 4.02599 24.2908 3.81807C24.2043 3.70144 24.0388 3.5347 23.9229 3.44757C23.7129 3.2896 23.6817 3.28906 13.5924 3.27246C5.27466 3.25879 3.43178 3.27415 3.24369 3.35875ZM2.53716 23.7602C2.55707 31.9225 2.55821 31.9774 2.7145 32.1881C2.80099 32.3049 2.96651 32.4716 3.08237 32.5587C3.29266 32.7169 3.30997 32.7172 13.5026 32.7172C23.6953 32.7172 23.7126 32.7169 23.9229 32.5587C24.0388 32.4716 24.2043 32.3049 24.2908 32.1881C24.4471 31.9774 24.4482 31.9225 24.4681 23.7602L24.4883 15.5444H13.5026H2.51702L2.53716 23.7602ZM5.67525 18.1136C5.33873 18.2611 5.02455 18.7076 4.98054 19.1009C4.87231 20.0684 5.9233 20.778 6.74516 20.2922C7.20945 20.0178 7.36253 19.7569 7.36253 19.2401C7.36253 18.8712 7.32607 18.7498 7.1427 18.5077C6.78665 18.0374 6.20513 17.8812 5.67525 18.1136ZM10.5661 18.1116C9.91064 18.4051 9.65901 19.1757 10.0143 19.8016C10.28 20.2695 10.5393 20.4235 11.0619 20.4235C11.5831 20.4235 11.8401 20.2716 12.1138 19.8016C12.6818 18.8265 11.6022 17.6477 10.5661 18.1116ZM15.4384 18.1093C15.0998 18.2638 14.7875 18.7096 14.7437 19.1009C14.6949 19.5372 14.8644 19.9258 15.2239 20.202C15.4643 20.3867 15.5848 20.4235 15.951 20.4235C16.6131 20.4235 17.0699 20.0188 17.1428 19.3674C17.2446 18.4577 16.263 17.7331 15.4384 18.1093ZM20.3292 18.1116C20.0487 18.2372 19.7942 18.5078 19.686 18.7957C19.6313 18.9411 19.6046 20.6994 19.6046 24.1574C19.6046 29.8578 19.5859 29.6378 20.1054 30.037C20.3459 30.2217 20.4664 30.2584 20.8326 30.2584C21.3068 30.2584 21.5527 30.1306 21.85 29.7294C22.0053 29.5198 22.0073 29.451 22.0073 24.1576V18.7979L21.7875 18.5077C21.4332 18.0396 20.846 17.8802 20.3292 18.1116ZM5.67525 23.031C5.33873 23.1786 5.02455 23.6251 4.98054 24.0184C4.87231 24.9859 5.9233 25.6955 6.74516 25.2097C7.20945 24.9353 7.36253 24.6744 7.36253 24.1576C7.36253 23.7887 7.32607 23.6673 7.1427 23.4251C6.78665 22.9549 6.20513 22.7987 5.67525 23.031ZM10.5661 23.0291C9.91064 23.3226 9.65901 24.0931 10.0143 24.719C10.28 25.187 10.5393 25.3409 11.0619 25.3409C11.5831 25.3409 11.8401 25.189 12.1138 24.719C12.6818 23.744 11.6022 22.5652 10.5661 23.0291ZM15.4438 23.0287C15.1314 23.1658 14.8166 23.5569 14.7557 23.8833C14.6759 24.3119 14.782 24.663 15.0896 24.9887C15.5499 25.4761 16.2401 25.5078 16.7413 25.0644C17.7652 24.1588 16.6951 22.4797 15.4438 23.0287ZM5.67525 27.9485C5.33873 28.096 5.02455 28.5425 4.98054 28.9359C4.87231 29.9034 5.9233 30.6129 6.74516 30.1272C7.20945 29.8527 7.36253 29.5919 7.36253 29.0751C7.36253 28.7062 7.32607 28.5848 7.1427 28.3426C6.78665 27.8724 6.20513 27.7162 5.67525 27.9485ZM10.5661 27.9466C9.91064 28.24 9.65901 29.0106 10.0143 29.6365C10.28 30.1044 10.5393 30.2584 11.0619 30.2584C11.5831 30.2584 11.8401 30.1065 12.1138 29.6365C12.6818 28.6615 11.6022 27.4827 10.5661 27.9466ZM15.4438 27.9462C14.6645 28.2881 14.4891 29.3319 15.1108 29.9276C15.5962 30.3928 16.252 30.4146 16.7413 29.9819C17.7652 29.0763 16.6951 27.3972 15.4438 27.9462Z" fill="white"/>
</svg>
