<svg  viewBox="0 0 31 31" fill="none" xmlns="http://www.w3.org/2000/svg">
<path fill-rule="evenodd" clip-rule="evenodd" d="M2.75988 0.0518583C1.62877 0.20664 0.72742 1.07189 0.558257 2.16522C0.480263 2.66942 0.480724 27.8639 0.558784 28.3683C0.731966 29.4877 1.62343 30.3201 2.82299 30.4824C3.04709 30.5127 6.75721 30.538 11.0678 30.5387L18.9052 30.54L18.3821 30.048L17.859 29.556L10.2431 29.5398L2.62721 29.5237L2.30476 29.3373C2.1049 29.2218 1.90649 29.0362 1.78291 28.8494L1.58358 28.5479V15.265V1.98217L1.78291 1.68067C1.90649 1.4938 2.1049 1.30828 2.30476 1.19274L2.62715 1.00636L8.39628 0.989234C13.6222 0.973774 14.1933 0.98172 14.4618 1.0738C14.713 1.15991 15.5796 1.94256 20.1407 6.20304C24.3116 10.0991 25.553 11.2931 25.6561 11.5079C25.7833 11.7728 25.7892 11.9098 25.7906 14.6197L25.7921 17.4544L26.3191 17.9443L26.8461 18.4341L26.8447 15.3252C26.844 13.6152 26.8159 12.0381 26.7822 11.8205C26.6482 10.9537 26.8528 11.169 20.805 5.52749C14.763 -0.108467 15.1038 0.173011 14.1709 0.0468076C13.6873 -0.0186652 3.24102 -0.0140457 2.75988 0.0518583ZM12.4379 9.65604C12.1334 9.72693 11.9129 9.87795 11.7789 10.1072C11.6811 10.2746 11.6627 10.4609 11.665 11.2615C11.6679 12.261 11.7949 13.0404 12.1854 14.4575L12.3447 15.0358L11.8843 15.9973C11.4184 16.9702 10.4087 18.8392 9.72817 19.9883L9.35665 20.6157L8.66497 20.9652C7.09554 21.758 6.04585 22.58 5.64744 23.3281C5.31123 23.9594 5.38026 24.1964 5.9834 24.4822C6.44794 24.7023 6.89298 24.6967 7.36154 24.465C8.06157 24.1187 9.03248 23.0404 10.0268 21.5048C10.2724 21.1257 10.5184 20.8032 10.5737 20.7881C12.3606 20.3027 12.9798 20.1491 13.9675 19.9461C14.6198 19.8121 15.4248 19.6598 15.7563 19.6078L16.3591 19.5132L17.0078 19.7977C17.8191 20.1534 18.9169 20.5254 19.4353 20.6202C19.6527 20.6599 19.8641 20.7025 19.905 20.7148C19.946 20.7272 19.8185 20.8988 19.6218 21.0962C18.1237 22.5991 17.5692 24.7165 18.1521 26.7082C18.7204 28.6501 20.4354 30.2537 22.5123 30.7851C24.7258 31.3514 27.0379 30.7818 28.6522 29.2723C30.2667 27.7629 30.8759 25.6011 30.2702 23.5314C29.7018 21.5895 27.9868 19.986 25.9099 19.4545C24.8177 19.1752 23.5179 19.1829 22.4379 19.4754L21.9186 19.616L21.8766 19.3703C21.8218 19.0502 21.4854 18.7506 21.0298 18.6162C20.5511 18.475 18.9441 18.4317 17.7773 18.5286L16.844 18.606L16.4517 18.3832C15.3901 17.7803 14.2775 16.4834 13.6626 15.1325L13.4623 14.6923L13.6036 13.8238C13.9194 11.8837 13.9954 10.8862 13.8621 10.43C13.7841 10.1628 13.5356 9.81858 13.3558 9.72859C13.1813 9.64131 12.6734 9.60116 12.4379 9.65604ZM12.7854 10.1682C12.6142 10.6855 12.8071 13.1709 13.0184 13.1709C13.0462 13.1709 13.134 13.0115 13.2133 12.8167C13.4912 12.1346 13.4522 10.7641 13.1413 10.2861C13.0126 10.0882 12.8317 10.0283 12.7854 10.1682ZM12.7881 16.4417C12.1086 17.8662 11.8188 18.4343 11.4298 19.104C11.1773 19.5389 10.9705 19.916 10.9705 19.9422C10.9705 19.9683 11.3041 19.884 11.7116 19.7548C12.5296 19.4956 13.8692 19.1529 14.7089 18.9879C15.0078 18.9292 15.2506 18.8644 15.2486 18.8438C15.2465 18.8233 15.0461 18.6403 14.8032 18.437C14.2082 17.9391 13.7975 17.4929 13.3577 16.8664C12.8768 16.1815 12.9029 16.201 12.7881 16.4417ZM18.4443 19.3257C18.5003 19.4104 19.6342 19.8062 20.127 19.913C20.6449 20.0253 20.9855 20.0321 21.2138 19.9349C21.6042 19.7685 21.2526 19.4597 20.5261 19.3308C20.0805 19.2518 18.3926 19.2476 18.4443 19.3257ZM23.5368 20.0424C23.2131 20.2066 23.1571 20.4045 23.1571 21.3851V22.276L22.3941 22.2967L21.6309 22.3174L21.4389 22.5185C21.2839 22.6808 21.2468 22.7761 21.2468 23.0121C21.2468 23.2924 21.2948 23.3673 22.3997 24.8127C23.0338 25.6422 23.6458 26.3832 23.7598 26.4595C23.9982 26.6188 24.3311 26.6387 24.5983 26.5095C24.7102 26.4554 25.2379 25.8274 25.957 24.8927C27.0541 23.4664 27.1345 23.3434 27.1614 23.0498C27.1872 22.7675 27.1697 22.7136 26.9907 22.5262L26.7913 22.3174L26.0282 22.2967L25.2651 22.276V21.3851C25.2651 20.3951 25.2088 20.2023 24.872 20.0395C24.6172 19.9162 23.7819 19.9181 23.5368 20.0424ZM8.21987 21.8708C7.67938 22.3296 7.17742 22.8305 6.87783 23.2104C6.66268 23.4832 6.40644 23.9502 6.47336 23.9475C6.80701 23.934 8.08417 22.5653 8.75588 21.5013C8.84896 21.3538 8.74277 21.427 8.21987 21.8708Z" fill="white"/>
</svg>
