<svg viewBox="0 0 29 34" fill="none" xmlns="http://www.w3.org/2000/svg">
<path fill-rule="evenodd" clip-rule="evenodd" d="M4.83628 0.0445381C4.72271 0.0629222 4.34385 0.168191 3.99447 0.278496C2.50526 0.74849 1.33727 1.86337 0.716649 3.40707L0.5 3.94597V17.0147V30.0834L0.716649 30.6223C1.34091 32.1751 2.49824 33.2734 4.04518 33.7811L4.71239 34H14.5413H24.3702L24.976 33.7859C26.6057 33.2097 27.8158 32.0135 28.3168 30.483L28.5 29.9235V20.8114V11.6993L28.2223 11.1398C27.9621 10.6154 27.6195 10.2661 22.771 5.57984C17.2784 0.271063 17.3095 0.2976 16.3076 0.0741127C15.96 -0.00342027 5.30295 -0.0309167 4.83628 0.0445381ZM5.10381 3.45319C4.68877 3.59883 4.29429 3.94301 4.10217 4.32716L3.92773 4.67582V17.0147V29.3535L4.10035 29.6985C4.30668 30.111 4.72858 30.4665 5.16022 30.5917C5.60789 30.7214 23.3921 30.7214 23.8398 30.5917C24.2714 30.4665 24.6933 30.111 24.8996 29.6985C25.0714 29.3553 25.0723 29.3103 25.0723 20.9657V12.578L20.3021 7.96226L15.532 3.34649L10.4526 3.35256C6.76407 3.35696 5.2994 3.38453 5.10381 3.45319ZM18.9602 13.8375C18.7152 13.9642 18.5041 14.1616 18.3407 14.4168L18.0929 14.8041V20.4586V26.1131L18.3443 26.4596C19.0648 27.4526 20.5074 27.4526 21.2279 26.4597L21.4794 26.1131L21.5022 20.5499L21.525 14.9867L21.3082 14.5578C21.0072 13.9625 20.5998 13.7106 19.8779 13.6734C19.424 13.6501 19.2692 13.6777 18.9602 13.8375ZM13.9845 17.1242C13.5161 17.2924 13.2833 17.4652 13.0338 17.83L12.8068 18.162V22.1375V26.1131L13.0582 26.4596C13.7787 27.4526 15.2213 27.4526 15.9418 26.4596L16.1932 26.1131V22.1303V18.1475L15.9418 17.8009C15.4949 17.185 14.6393 16.8891 13.9845 17.1242ZM8.51106 20.6008C8.09865 20.7821 7.68105 21.2336 7.55963 21.6293C7.4986 21.8284 7.47638 22.6393 7.49397 24.022L7.52065 26.1135L7.77207 26.4599C8.49272 27.4525 9.93501 27.4525 10.6557 26.4599L10.9071 26.1135L10.9338 24.022C10.9514 22.6393 10.9291 21.8284 10.8681 21.6293C10.6673 20.9748 9.93534 20.4552 9.21386 20.4552C9.00944 20.4552 8.69318 20.5207 8.51106 20.6008Z" fill="white"/>
</svg>
